<svg width="21" height="23" viewBox="0 0 21 23" fill="none" xmlns="http://www.w3.org/2000/svg">
<g opacity="0.5">
<mask id="path-1-outside-1_648_933" maskUnits="userSpaceOnUse" x="-0.108398" y="4.75" width="14" height="15" fill="black">
<rect fill="white" x="-0.108398" y="4.75" width="14" height="15"/>
<path d="M2.47718 15.8402C2.47718 17.0516 3.37385 18.0337 4.47996 18.0337C5.58606 18.0337 6.48273 17.0516 6.48273 15.8402C6.48273 14.6287 5.58606 13.6466 4.47996 13.6466C3.37385 13.6466 2.47718 14.6287 2.47718 15.8402Z"/>
</mask>
<path d="M5.28106 7.06611L5.64494 7.23222L5.64494 7.23222L5.28106 7.06611ZM4.0794 9.69832L4.44328 9.86444C4.43924 9.87328 4.43488 9.88198 4.43021 9.8905L4.0794 9.69832ZM1.67607 15.8402L1.67607 15.4402H1.67607V15.8402ZM2.13125 15.4402C2.35216 15.4402 2.53125 15.6192 2.53125 15.8402C2.53125 16.0611 2.35216 16.2402 2.13125 16.2402V15.4402ZM7.28384 16.2402C7.06292 16.2402 6.88384 16.0611 6.88384 15.8402C6.88384 15.6192 7.06292 15.4402 7.28384 15.4402V16.2402ZM12.8916 15.4402C13.1125 15.4402 13.2916 15.6192 13.2916 15.8402C13.2916 16.0611 13.1125 16.2402 12.8916 16.2402V15.4402ZM6.48273 6.15C6.35982 6.15 6.24382 6.20449 6.0994 6.3903C5.94567 6.5881 5.80925 6.8723 5.64494 7.23222L4.91719 6.89999C5.07332 6.55799 5.24642 6.18414 5.46775 5.89937C5.69841 5.6026 6.02302 5.35 6.48273 5.35V6.15ZM5.64494 7.23222L4.44328 9.86444L3.71552 9.53221L4.91719 6.89999L5.64494 7.23222ZM4.0794 9.69832C4.43021 9.8905 4.43005 9.89079 4.42989 9.89109C4.42983 9.89119 4.42967 9.89148 4.42956 9.89168C4.42934 9.89208 4.42912 9.89249 4.42889 9.8929C4.42843 9.89373 4.42795 9.89458 4.42745 9.89546C4.42645 9.89723 4.42537 9.8991 4.42422 9.90109C4.42191 9.90505 4.41927 9.90945 4.4163 9.91424C4.41035 9.92382 4.40303 9.935 4.39422 9.94751C4.37658 9.97255 4.35295 10.0029 4.32222 10.0366C4.26051 10.1042 4.1713 10.1837 4.04699 10.2594C3.79575 10.4123 3.42132 10.537 2.87774 10.537V9.73703C3.29548 9.73703 3.52189 9.64244 3.63115 9.57596C3.68708 9.54193 3.71804 9.51183 3.73143 9.49716C3.73826 9.48969 3.74091 9.48579 3.74017 9.48684C3.73981 9.48735 3.7386 9.48911 3.73664 9.49226C3.73566 9.49384 3.73449 9.49577 3.73314 9.49808C3.73247 9.49923 3.73176 9.50048 3.731 9.50182C3.73062 9.50249 3.73023 9.50319 3.72983 9.50391C3.72963 9.50427 3.72942 9.50463 3.72922 9.50501C3.72911 9.50519 3.72896 9.50548 3.72891 9.50557C3.72875 9.50585 3.72859 9.50614 4.0794 9.69832ZM2.87774 10.537C2.59819 10.537 2.17689 10.6134 1.83943 10.8263C1.52347 11.0256 1.27496 11.3439 1.27496 11.8918H0.474964C0.474964 11.0359 0.894051 10.4768 1.41258 10.1497C1.9096 9.83613 2.48969 9.73703 2.87774 9.73703V10.537ZM1.27496 11.8918V14.9628H0.474964V11.8918H1.27496ZM1.27496 14.9628C1.27496 15.0467 1.32277 15.174 1.42753 15.2888C1.5357 15.4073 1.63674 15.4402 1.67607 15.4402L1.67607 16.2402C1.33306 16.2402 1.03355 16.0437 0.836744 15.8282C0.636544 15.6089 0.474964 15.2976 0.474964 14.9628H1.27496ZM1.67607 15.4402H2.13125V16.2402H1.67607V15.4402ZM7.28384 15.4402H12.8916V16.2402H7.28384V15.4402ZM6.48273 5.35H12.8916V6.15H6.48273V5.35ZM3.27718 15.8402C3.27718 16.6798 3.88262 17.2337 4.47996 17.2337V18.8337C2.86509 18.8337 1.67718 17.4234 1.67718 15.8402H3.27718ZM4.47996 17.2337C5.07729 17.2337 5.68273 16.6798 5.68273 15.8402H7.28273C7.28273 17.4234 6.09483 18.8337 4.47996 18.8337V17.2337ZM5.68273 15.8402C5.68273 15.0005 5.07729 14.4466 4.47996 14.4466V12.8466C6.09483 12.8466 7.28273 14.2569 7.28273 15.8402H5.68273ZM4.47996 14.4466C3.88262 14.4466 3.27718 15.0005 3.27718 15.8402H1.67718C1.67718 14.2569 2.86509 12.8466 4.47996 12.8466V14.4466Z" fill="black" mask="url(#path-1-outside-1_648_933)"/>
<mask id="path-3-outside-2_648_933" maskUnits="userSpaceOnUse" x="7.41309" y="4.75" width="14" height="15" fill="black">
<rect fill="white" x="7.41309" y="4.75" width="14" height="15"/>
<path d="M18.8275 15.8402C18.8275 17.0516 17.9308 18.0337 16.8247 18.0337C15.7186 18.0337 14.822 17.0516 14.822 15.8402C14.822 14.6287 15.7186 13.6466 16.8247 13.6466C17.9308 13.6466 18.8275 14.6287 18.8275 15.8402Z"/>
</mask>
<path d="M16.0236 7.06611L15.6597 7.23222L15.6597 7.23222L16.0236 7.06611ZM17.2253 9.69832L16.8614 9.86444C16.8654 9.87328 16.8698 9.88198 16.8745 9.8905L17.2253 9.69832ZM19.6286 15.8402L19.6286 15.4402H19.6286V15.8402ZM19.1734 15.4402C18.9525 15.4402 18.7734 15.6192 18.7734 15.8402C18.7734 16.0611 18.9525 16.2402 19.1734 16.2402V15.4402ZM14.0208 16.2402C14.2418 16.2402 14.4208 16.0611 14.4208 15.8402C14.4208 15.6192 14.2418 15.4402 14.0208 15.4402V16.2402ZM8.41309 15.4402C8.19217 15.4402 8.01309 15.6192 8.01309 15.8402C8.01309 16.0611 8.19217 16.2402 8.41309 16.2402V15.4402ZM14.822 6.15C14.9449 6.15 15.0609 6.20449 15.2053 6.3903C15.359 6.5881 15.4954 6.8723 15.6597 7.23222L16.3875 6.89999C16.2314 6.55799 16.0583 6.18414 15.8369 5.89937C15.6063 5.6026 15.2817 5.35 14.822 5.35V6.15ZM15.6597 7.23222L16.8614 9.86444L17.5892 9.53221L16.3875 6.89999L15.6597 7.23222ZM17.2253 9.69832C16.8745 9.8905 16.8746 9.89079 16.8748 9.89109C16.8749 9.89119 16.875 9.89148 16.8751 9.89168C16.8753 9.89208 16.8756 9.89249 16.8758 9.8929C16.8763 9.89373 16.8767 9.89458 16.8772 9.89546C16.8782 9.89723 16.8793 9.8991 16.8805 9.90109C16.8828 9.90505 16.8854 9.90945 16.8884 9.91424C16.8943 9.92382 16.9017 9.935 16.9105 9.94751C16.9281 9.97255 16.9517 10.0029 16.9825 10.0366C17.0442 10.1042 17.1334 10.1837 17.2577 10.2594C17.5089 10.4123 17.8834 10.537 18.427 10.537V9.73703C18.0092 9.73703 17.7828 9.64244 17.6735 9.57596C17.6176 9.54193 17.5866 9.51183 17.5733 9.49716C17.5664 9.48969 17.5638 9.48579 17.5645 9.48684C17.5649 9.48735 17.5661 9.48911 17.5681 9.49226C17.569 9.49384 17.5702 9.49577 17.5715 9.49808C17.5722 9.49923 17.5729 9.50048 17.5737 9.50182C17.5741 9.50249 17.5745 9.50319 17.5749 9.50391C17.5751 9.50427 17.5753 9.50463 17.5755 9.50501C17.5756 9.50519 17.5757 9.50548 17.5758 9.50557C17.5759 9.50585 17.5761 9.50614 17.2253 9.69832ZM18.427 10.537C18.7065 10.537 19.1278 10.6134 19.4653 10.8263C19.7812 11.0256 20.0297 11.3439 20.0297 11.8918H20.8297C20.8297 11.0359 20.4106 10.4768 19.8921 10.1497C19.3951 9.83613 18.815 9.73703 18.427 9.73703V10.537ZM20.0297 11.8918V14.9628H20.8297V11.8918H20.0297ZM20.0297 14.9628C20.0297 15.0467 19.9819 15.174 19.8772 15.2888C19.769 15.4073 19.6679 15.4402 19.6286 15.4402L19.6286 16.2402C19.9716 16.2402 20.2711 16.0437 20.4679 15.8282C20.6681 15.6089 20.8297 15.2976 20.8297 14.9628H20.0297ZM19.6286 15.4402H19.1734V16.2402H19.6286V15.4402ZM14.0208 15.4402H8.41309V16.2402H14.0208V15.4402ZM14.822 5.35H8.41309V6.15H14.822V5.35ZM18.0275 15.8402C18.0275 16.6798 17.4221 17.2337 16.8247 17.2337V18.8337C18.4396 18.8337 19.6275 17.4234 19.6275 15.8402H18.0275ZM16.8247 17.2337C16.2274 17.2337 15.622 16.6798 15.622 15.8402H14.022C14.022 17.4234 15.2099 18.8337 16.8247 18.8337V17.2337ZM15.622 15.8402C15.622 15.0005 16.2274 14.4466 16.8247 14.4466V12.8466C15.2099 12.8466 14.022 14.2569 14.022 15.8402H15.622ZM16.8247 14.4466C17.4221 14.4466 18.0275 15.0005 18.0275 15.8402H19.6275C19.6275 14.2569 18.4396 12.8466 16.8247 12.8466V14.4466Z" fill="black" mask="url(#path-3-outside-2_648_933)"/>
<path d="M14.6035 7.1875H11.2826C11.2274 7.1875 11.1826 7.23227 11.1826 7.2875V10.7566C11.1826 10.8119 11.2274 10.8566 11.2826 10.8566H16.2506C16.324 10.8566 16.3724 10.7801 16.3409 10.7138L14.6938 7.24461C14.6773 7.20973 14.6421 7.1875 14.6035 7.1875Z" stroke="black" stroke-width="0.8"/>
<path d="M6.86819 7.1875H10.1891C10.2443 7.1875 10.2891 7.23227 10.2891 7.2875V10.7566C10.2891 10.8119 10.2443 10.8566 10.1891 10.8566H5.22109C5.14764 10.8566 5.09926 10.7801 5.13076 10.7138L6.77785 7.24461C6.79441 7.20973 6.82957 7.1875 6.86819 7.1875Z" stroke="black" stroke-width="0.8"/>
</g>
</svg>
