<svg width="27" height="27" viewBox="0 0 27 27" fill="none" xmlns="http://www.w3.org/2000/svg">
<g opacity="0.5">
<path d="M3.9375 9.95835C3.9375 8.93326 3.9375 8.42072 4.14016 8.03059C4.31093 7.70184 4.57899 7.43378 4.90775 7.263C5.29788 7.06035 5.81042 7.06035 6.8355 7.06035H20.1645C21.1896 7.06035 21.7021 7.06035 22.0923 7.263C22.421 7.43378 22.6891 7.70184 22.8598 8.03059C23.0625 8.42072 23.0625 8.93327 23.0625 9.95835V17.1968C23.0625 18.2219 23.0625 18.7345 22.8598 19.1246C22.6891 19.4533 22.421 19.7214 22.0923 19.8922C21.7021 20.0948 21.1896 20.0948 20.1645 20.0948H6.8355C5.81042 20.0948 5.29788 20.0948 4.90775 19.8922C4.57899 19.7214 4.31093 19.4533 4.14016 19.1246C3.9375 18.7345 3.9375 18.2219 3.9375 17.1968V9.95835Z" stroke="black"/>
<path d="M3.9375 11.4052L23.0625 11.4052" stroke="black" stroke-linecap="round"/>
<ellipse cx="7.3125" cy="16.8362" rx="0.5625" ry="0.543103" fill="black"/>
</g>
</svg>
