<svg width="50" height="50" viewBox="0 0 50 50" fill="none" xmlns="http://www.w3.org/2000/svg">
<rect x="7" y="8" width="32" height="32" rx="16" fill="#F1F1F1"/>
<path d="M27.1014 17.374L27.1231 17.8735L27.1014 17.374C26.7623 17.3888 26.4883 17.5375 26.2413 17.7287C26.0103 17.9076 25.7556 18.1623 25.46 18.4579L25.4381 18.4798L18.9548 24.9631C18.9438 24.9741 18.9329 24.985 18.922 24.9959C18.7595 25.158 18.6157 25.3015 18.5143 25.4806C18.413 25.6596 18.3639 25.8568 18.3085 26.0795C18.3048 26.0944 18.301 26.1094 18.2972 26.1245L17.717 28.4453L18.2021 28.5666L17.717 28.4453C17.7148 28.4542 17.7126 28.4631 17.7104 28.472C17.6711 28.6287 17.6292 28.796 17.6155 28.9366C17.6003 29.0913 17.6039 29.3524 17.8133 29.5618C18.0227 29.7712 18.2837 29.7747 18.4385 29.7596C18.579 29.7458 18.7463 29.7039 18.903 29.6647C18.912 29.6624 18.9209 29.6602 18.9297 29.658L21.2505 29.0778C21.2656 29.074 21.2806 29.0703 21.2955 29.0666C21.5183 29.0111 21.7154 28.9621 21.8945 28.8607L21.6481 28.4256L21.8945 28.8607C22.0735 28.7593 22.217 28.6155 22.3791 28.4531C22.39 28.4422 22.4009 28.4312 22.4119 28.4202L28.8952 21.9369L28.9171 21.915C29.2127 21.6195 29.4674 21.3648 29.6463 21.1337C29.8375 20.8868 29.9863 20.6127 30.001 20.2737C30.0029 20.2302 30.0029 20.1866 30.001 20.1431C29.9863 19.804 29.8375 19.53 29.6463 19.283C29.4674 19.052 29.2127 18.7973 28.9171 18.5017L28.8952 18.4798L28.8733 18.4579C28.5778 18.1623 28.323 17.9076 28.092 17.7287C27.8451 17.5375 27.571 17.3888 27.232 17.374C27.1885 17.3721 27.1449 17.3721 27.1014 17.374Z" stroke="black"/>
<path d="M24.875 18.8333L27.625 17L30.375 19.75L28.5417 22.5L24.875 18.8333Z" fill="black"/>
</svg>
