<svg width="230" height="41" viewBox="0 0 230 41" fill="none" xmlns="http://www.w3.org/2000/svg">
<rect opacity="0.8" width="230" height="41" rx="10" fill="#77C460"/>
<path opacity="0.4" d="M61.2682 39.9038C61.2682 39.9038 62.5385 36.4193 61.749 33.0437C60.9554 29.6657 58.7064 26.624 55.0373 26.4488C50.5319 26.2308 47.1284 31.7662 43.8163 31.5391C40.5041 31.3119 41.001 28.287 37.1876 28.0751C33.269 27.8601 28.8733 34.6627 26.7007 34.8175C24.0318 35.0065 22.8582 33.101 19.3346 33.1239C15.1682 33.1483 10.9991 39.8113 10.9991 39.8113L61.2682 39.9038Z" fill="url(#paint0_linear_1_984)"/>
<path opacity="0.4" d="M136.271 39.9365C136.271 39.9365 133.968 31.3017 130.297 31.1578C125.79 30.9781 124.617 33.9423 121.299 33.7411C117.981 33.5399 117.284 29.2405 113.467 29.0651C109.547 28.8835 103.833 34.9713 101.658 35.1424C98.9905 35.3541 97.8008 33.4586 94.2775 33.5116C90.1114 33.5714 85.9992 40.2697 85.9992 40.2697L136.271 39.9365Z" fill="url(#paint1_linear_1_984)"/>
<path opacity="0.4" d="M158.346 40.1965C158.346 40.1965 156.472 32.9569 159.814 31.6552C163.763 30.1209 166.398 34.5839 169.255 34.4145C172.113 34.245 170.75 30.9265 174.042 30.7723C177.419 30.6172 181.168 34.8893 183.039 35.0394C185.339 35.2236 185.587 33.3763 188.624 33.4172C192.215 33.4681 196.22 40.1915 196.22 40.1915L158.346 40.1965Z" fill="#44A055"/>
<path opacity="0.4" d="M68.6423 40.1142C68.6423 40.1142 68.6162 37.7174 69.559 36.1135C70.4978 34.512 72.7748 34.9331 74.2753 36.0473C75.19 36.7279 78.5022 40.1132 78.5022 40.1132L68.6423 40.1142Z" fill="#44A055"/>
<path opacity="0.4" d="M208.067 25.0068C207.983 24.8184 207.76 24.734 207.571 24.8184L203.64 26.587L203.474 19.2121L206.645 17.2509C206.76 17.1795 206.807 17.0323 206.751 16.9067C206.688 16.7682 206.528 16.7076 206.389 16.7704L203.45 18.0951L203.335 13.0429C203.329 12.7874 203.121 12.5818 202.863 12.5818C202.608 12.5818 202.398 12.7874 202.391 13.0429L202.283 18.0648L199.411 16.7725C199.287 16.7162 199.14 16.7595 199.067 16.8786C198.986 17.0063 199.028 17.1751 199.155 17.2552L202.259 19.1753L202.101 26.5653L198.231 24.8228C198.062 24.747 197.859 24.8055 197.757 24.9678C197.649 25.1431 197.703 25.3748 197.878 25.4852L202.069 28.0784L201.857 37.9686C201.857 38.2933 202.313 38.5552 202.876 38.5552C203.439 38.5552 203.896 38.2933 203.896 37.9686L203.673 28.1152L207.922 25.4873C208.08 25.3813 208.145 25.1799 208.067 25.0068Z" fill="#357C79"/>
<path opacity="0.4" d="M219.703 31.1711C220.336 28.7323 216.095 27.5464 215.212 27.3271C216.458 26.6849 217.661 27.3202 218.211 26.9975C218.697 26.7124 218.356 26.1606 217.8 26.005C219.177 25.7097 220.26 25.7399 220.491 24.5232C220.952 22.0957 216.626 21.8694 216.135 21.8515C217.156 21.0778 218.2 21.6821 218.649 21.4182C219.042 21.1878 218.701 20.7196 218.221 20.6613C219.868 20.1087 221.377 20.1033 221.401 18.8886C221.438 17.0708 218.323 16.9768 217.93 16.9717C218.75 16.3049 219.597 16.8044 219.958 16.5924C220.17 16.4687 220.111 16.2579 219.932 16.1207C221.092 15.7962 222.109 15.54 222.043 14.4894C221.961 13.1654 219.529 13.2792 219.092 13.3102C219.585 13.0951 220.085 13.1468 220.282 12.942C220.537 12.6777 220.157 12.3872 219.771 12.4628C219.717 12.474 219.651 12.4959 219.581 12.5293C220.413 11.1074 220.88 9.07331 219.917 8.55928C218.968 8.05159 218.01 9.44353 217.524 11.4025C217.495 11.1885 217.442 11.0142 217.379 10.9086C217.178 10.5711 216.707 10.4814 216.681 10.8478C216.654 11.2244 217.319 11.7013 217.277 12.547C217.079 12.2619 215.573 10.1805 214.415 11.0278C213.565 11.6503 214.394 12.6139 214.891 13.9408C214.868 13.9101 214.844 13.8827 214.822 13.8602C214.537 13.589 214.061 13.6299 214.132 13.9889C214.215 14.3943 215.131 14.6907 215.201 15.7164C215.199 15.7513 215.197 15.7862 215.195 15.8224C215.195 15.8224 212.999 13.5399 211.616 14.4862C210.27 15.4056 211.715 16.5831 212.512 18.1768C212.462 18.1017 212.412 18.0406 212.363 17.9958C211.988 17.6373 211.358 17.6919 211.454 18.167C211.56 18.6979 212.75 19.0869 212.861 20.4102C212.426 20.0499 209.174 17.455 207.8 19.0903C206.973 20.0758 207.749 20.7404 208.562 21.8877C208.172 21.8015 207.814 21.967 207.901 22.3912C208.033 23.042 209.414 23.529 209.696 25.0228C209.127 24.617 205.466 22.1304 203.605 24.0762C201.658 26.1105 204.785 27.8316 206.752 30.6811C206.188 30.3441 205.431 30.565 205.663 31.138C205.958 31.8646 207.926 32.0438 208.114 34.2919C208.119 34.2525 208.12 34.2125 208.124 34.1725C208.162 34.5614 208.168 34.9682 208.13 35.3928C208.6 34.9368 209.08 34.5767 209.565 34.2897C211.075 33.6 212.277 34.6202 212.928 34.3862C213.483 34.1867 213.199 33.5268 212.626 33.2984C215.933 32.9162 218.911 34.2221 219.703 31.1711Z" fill="url(#paint2_linear_1_984)"/>
<path opacity="0.4" d="M212.986 23.524C212.651 20.0303 207.159 21.3442 205.681 21.762C206.568 20.6797 207.93 20.6148 208.27 20.039C208.573 19.5259 208.021 19.1796 207.428 19.2705C209.257 17.896 211.298 17.2661 210.584 15.4759C209.64 13.11 205.252 14.8049 204.847 14.9672C205.547 13.307 207.233 13.3459 207.601 12.7225C207.926 12.1727 207.164 11.8307 206.54 12.1164C206.525 12.1229 206.51 12.1337 206.495 12.1402C207.612 10.8739 208.761 9.81108 208.185 8.87813C207.276 7.40185 205.454 8.33047 204.687 8.81968C205.07 8.15514 205.711 7.81313 205.778 7.41917C205.86 6.92563 205.209 6.89316 204.834 7.27413C204.774 7.33691 204.709 7.42782 204.648 7.53605C205.016 5.21773 204.821 3.10938 203.334 3.00331C201.968 2.90591 201.012 4.97096 201.003 7.15941C200.942 7.0555 200.882 6.96892 200.823 6.91048C200.449 6.52734 199.797 6.56197 199.88 7.05551C199.962 7.54688 200.934 7.95383 201.194 9.00584C200.8 8.73093 198.449 7.18755 197.464 8.75907C196.739 9.91715 198.241 10.9627 199.477 12.3567C199.345 12.2463 199.219 12.164 199.113 12.1142C198.49 11.8307 197.728 12.1705 198.053 12.7203C198.408 13.3199 199.988 13.3048 200.728 14.7941C200.031 14.5689 195.808 13.3026 195.068 15.2854C194.332 17.2574 196.808 17.8202 198.7 19.264C198.124 19.1969 197.607 19.5389 197.903 20.039C198.245 20.6169 199.618 20.6797 200.505 21.7772C200.516 21.8183 200.529 21.8551 200.54 21.8984C200.54 21.8984 193.864 19.435 193.068 22.8638C192.572 25.0025 194.884 25.6605 197.444 26.6649C196.734 26.903 196.317 27.5459 196.903 28.0546C197.875 28.8966 200.882 27.6953 202.828 30.8383C202.804 30.769 202.774 30.7063 202.748 30.6392C202.808 30.7626 202.869 30.8903 202.923 31.0223C202.953 30.9487 202.99 30.8794 203.023 30.808C204.969 27.7061 207.958 28.8945 208.926 28.0546C209.354 27.6844 209.246 27.2429 208.884 26.9377C211.192 26.2385 213.19 25.6584 212.986 23.524Z" fill="url(#paint3_linear_1_984)"/>
<path opacity="0.4" d="M214.858 31.4203C214.86 31.2942 214.759 31.1903 214.633 31.1882L210.616 31.1201L212.941 25.7198L215.976 25.3114C216.088 25.2964 216.174 25.2002 216.173 25.0838C216.173 24.9565 216.07 24.8547 215.944 24.8557L213.309 24.8631L215.415 19.9736L217.64 19.6745C217.722 19.6633 217.784 19.5935 217.784 19.508C217.783 19.4163 217.708 19.341 217.616 19.3419L215.682 19.3467L217.215 15.7887C217.279 15.6391 217.212 15.4666 217.065 15.4009C216.917 15.3351 216.743 15.3996 216.675 15.5475L215.043 19.075L213.732 17.603C213.678 17.5414 213.584 17.529 213.514 17.5751C213.438 17.6265 213.418 17.7306 213.469 17.8062L214.75 19.6923C214.751 19.6941 214.754 19.6953 214.754 19.6972L212.518 24.5239L210.741 22.5277C210.666 22.443 210.538 22.4258 210.442 22.4901C210.338 22.5611 210.31 22.7035 210.382 22.8086L212.125 25.3753L209.657 30.704L206.9 27.7274C206.82 27.6422 206.686 27.629 206.592 27.7015C206.492 27.7793 206.473 27.9225 206.551 28.0223L209.27 31.5394L206.199 38.1693C206.199 38.1693 206.199 38.1693 206.198 38.1706C206.116 38.3552 206.309 38.6197 206.628 38.7622C206.947 38.9048 207.273 38.871 207.355 38.6876L210.252 31.9583L214.645 31.6397C214.762 31.6359 214.856 31.5401 214.858 31.4203Z" fill="#2C6D68"/>
<path opacity="0.1" d="M156.236 8.00171C155.719 8.00171 155 8.54579 155 8.54579C155.599 8.79478 156.139 9.07605 156.443 9.48642C157.116 10.4455 158.265 11.8426 159.551 12.359C160.372 12.6864 161.962 12.9861 163.562 13.2259C163.562 13.2259 164.166 14.0605 166.062 13.7792C167.906 13.5071 168.03 12.6449 168.03 12.6449L163.71 10.9804C163.373 10.8513 163.258 10.4363 163.489 10.1596C163.724 9.87374 163.991 9.50487 164.176 9.11755C164.664 8.06626 164.153 5 164.153 5L162.331 6.5631C161.847 6.97808 161.289 7.28701 160.681 7.48067L159.09 7.97865C158.79 8.07087 158.477 8.11237 158.163 8.09392C157.564 8.05243 156.586 8.00171 156.236 8.00171Z" fill="url(#paint4_linear_1_984)"/>
<path opacity="0.1" d="M174.678 6.60707C173.978 6.60707 173 7.34482 173 7.34482C173.816 7.68141 174.54 8.06412 174.955 8.61743C175.868 9.91771 177.426 11.8128 179.165 12.509C180.281 12.9563 182.434 13.3575 184.606 13.6848C184.606 13.6848 185.27 14.962 187.819 15.437C190.369 15.9119 191.019 14.4595 191.019 14.4595L185.505 11.241C184.352 10.5678 184.444 8.88486 185.657 8.33155C185.947 8.19783 186.284 8.08717 186.667 8.00879C189.018 7.53386 190.093 6.33041 190.093 6.33041C190.093 6.33041 186.473 4.06645 184.463 4.0019C182.282 3.93735 179.561 5.53272 178.432 6.35347C178.077 6.61168 177.652 6.73617 177.214 6.71312C176.417 6.67162 175.144 6.60707 174.678 6.60707Z" fill="url(#paint5_linear_1_984)"/>
<path opacity="0.1" d="M167.212 18.679C166.696 18.679 165.977 19.2231 165.977 19.2231C166.576 19.472 166.807 20.0807 167.111 20.4911C167.784 21.4501 168.932 22.8472 170.219 23.3637C171.039 23.691 172.63 23.9907 174.23 24.2305C174.23 24.2305 174.834 25.0651 176.729 24.7838C178.574 24.5118 177.656 24.1521 177.656 24.1521L173.995 21.9158C173.787 21.7913 173.691 21.547 173.751 21.3118C173.852 20.9291 174.036 20.3343 174.276 19.8179C174.765 18.7666 174.816 16.0046 174.816 16.0046C174.816 16.0046 172.925 16.4519 171.777 17.2404C170.629 18.0288 169.822 18.7251 169.822 18.7251C169.495 18.9741 169.075 19.0571 168.674 18.9602C168.176 18.8311 167.517 18.679 167.212 18.679Z" fill="url(#paint6_linear_1_984)"/>
<path d="M35.2241 19.61H36.6661V24.888C36.6194 24.9067 36.5308 24.9347 36.4001 24.972C36.2788 25 36.1481 25.014 36.0081 25.014C35.7748 25.014 35.5834 24.9393 35.4341 24.79C35.2941 24.6407 35.2241 24.4493 35.2241 24.216V19.61ZM36.6661 21.836L35.2241 21.822V17.286C35.2241 17.0433 35.2941 16.852 35.4341 16.712C35.5834 16.5627 35.7748 16.488 36.0081 16.488C36.1481 16.488 36.2788 16.502 36.4001 16.53C36.5308 16.558 36.6194 16.586 36.6661 16.614V21.836ZM36.0081 21.234V20.044H40.2361C40.2734 20.1 40.3061 20.1793 40.3341 20.282C40.3714 20.3847 40.3901 20.4967 40.3901 20.618C40.3901 20.814 40.3434 20.968 40.2501 21.08C40.1568 21.1827 40.0261 21.234 39.8581 21.234H36.0081ZM36.0081 25.014V23.81H40.7261C40.7634 23.866 40.7961 23.9453 40.8241 24.048C40.8614 24.1507 40.8801 24.2627 40.8801 24.384C40.8801 24.58 40.8334 24.734 40.7401 24.846C40.6468 24.958 40.5161 25.014 40.3481 25.014H36.0081ZM36.0081 17.692V16.488H40.6561C40.6934 16.544 40.7261 16.6233 40.7541 16.726C40.7914 16.8287 40.8101 16.9407 40.8101 17.062C40.8101 17.258 40.7634 17.412 40.6701 17.524C40.5768 17.636 40.4461 17.692 40.2781 17.692H36.0081ZM46.6129 18.322C46.8182 18.322 46.9862 18.3733 47.1169 18.476C47.2476 18.5693 47.3129 18.7187 47.3129 18.924C47.3129 19.0547 47.2616 19.2927 47.1589 19.638C47.0562 19.9833 46.9209 20.3893 46.7529 20.856C46.5942 21.3133 46.4169 21.794 46.2209 22.298C46.0249 22.802 45.8242 23.2827 45.6189 23.74C45.4229 24.1973 45.2409 24.5847 45.0729 24.902C45.0076 24.958 44.8956 25.0047 44.7369 25.042C44.5876 25.0793 44.4242 25.098 44.2469 25.098C44.0416 25.098 43.8596 25.0653 43.7009 25C43.5422 24.944 43.4349 24.8553 43.3789 24.734C43.2762 24.538 43.1456 24.2627 42.9869 23.908C42.8282 23.5533 42.6556 23.1473 42.4689 22.69C42.2916 22.2327 42.1096 21.7613 41.9229 21.276C41.7456 20.7813 41.5776 20.31 41.4189 19.862C41.2696 19.414 41.1482 19.0173 41.0549 18.672C41.1296 18.5693 41.2369 18.4853 41.3769 18.42C41.5169 18.3547 41.6616 18.322 41.8109 18.322C42.0162 18.322 42.1796 18.3687 42.3009 18.462C42.4316 18.5553 42.5342 18.7233 42.6089 18.966L43.3929 21.388C43.4676 21.612 43.5562 21.8733 43.6589 22.172C43.7709 22.4707 43.8782 22.7647 43.9809 23.054C44.0836 23.3433 44.1676 23.586 44.2329 23.782H44.2889C44.6156 22.8953 44.9236 22.004 45.2129 21.108C45.5116 20.2027 45.7682 19.3207 45.9829 18.462C46.1602 18.3687 46.3702 18.322 46.6129 18.322ZM48.5446 22.522L48.4746 21.472L52.4506 20.912C52.4226 20.4733 52.2686 20.1093 51.9886 19.82C51.7086 19.5213 51.3119 19.372 50.7986 19.372C50.2759 19.372 49.8419 19.5587 49.4966 19.932C49.1512 20.3053 48.9739 20.8373 48.9646 21.528L48.9926 22.06C49.0672 22.7227 49.3052 23.222 49.7066 23.558C50.1079 23.8847 50.6352 24.048 51.2886 24.048C51.6806 24.048 52.0399 23.9873 52.3666 23.866C52.6932 23.7447 52.9546 23.614 53.1506 23.474C53.2626 23.5393 53.3512 23.628 53.4166 23.74C53.4912 23.852 53.5286 23.9733 53.5286 24.104C53.5286 24.3093 53.4259 24.496 53.2206 24.664C53.0152 24.832 52.7352 24.9627 52.3806 25.056C52.0352 25.1493 51.6432 25.196 51.2046 25.196C50.4859 25.196 49.8559 25.0653 49.3146 24.804C48.7732 24.5333 48.3532 24.1367 48.0546 23.614C47.7559 23.082 47.6066 22.4333 47.6066 21.668C47.6066 21.1173 47.6859 20.632 47.8446 20.212C48.0126 19.7827 48.2412 19.4233 48.5306 19.134C48.8199 18.8447 49.1606 18.6253 49.5526 18.476C49.9446 18.3267 50.3646 18.252 50.8126 18.252C51.4006 18.252 51.9186 18.378 52.3666 18.63C52.8239 18.8727 53.1786 19.2133 53.4306 19.652C53.6826 20.0907 53.8086 20.59 53.8086 21.15C53.8086 21.3833 53.7526 21.556 53.6406 21.668C53.5286 21.7707 53.3699 21.836 53.1646 21.864L48.5446 22.522ZM56.0674 19.848V21.906H54.6254V19.82C54.6254 19.596 54.672 19.414 54.7654 19.274C54.868 19.1247 55.0174 18.9847 55.2134 18.854C55.4747 18.686 55.8154 18.546 56.2354 18.434C56.6647 18.322 57.1314 18.266 57.6354 18.266C58.4474 18.266 58.8534 18.4947 58.8534 18.952C58.8534 19.064 58.8347 19.1667 58.7974 19.26C58.7694 19.3533 58.732 19.4373 58.6854 19.512C58.592 19.4933 58.4707 19.4747 58.3214 19.456C58.1814 19.4373 58.0367 19.428 57.8874 19.428C57.5047 19.428 57.1547 19.47 56.8374 19.554C56.5294 19.6287 56.2727 19.7267 56.0674 19.848ZM54.6254 21.304L56.0674 21.43V24.972C56.002 24.9907 55.9087 25.014 55.7874 25.042C55.6754 25.07 55.5494 25.084 55.4094 25.084C55.148 25.084 54.952 25.0327 54.8214 24.93C54.6907 24.8273 54.6254 24.6593 54.6254 24.426V21.304ZM60.8455 23.488C60.6869 23.18 60.5049 22.7833 60.2995 22.298C60.0942 21.8127 59.8795 21.262 59.6555 20.646C59.4315 20.03 59.2169 19.372 59.0115 18.672C59.0862 18.5693 59.1889 18.4853 59.3195 18.42C59.4595 18.3547 59.6089 18.322 59.7675 18.322C59.9729 18.322 60.1409 18.3687 60.2715 18.462C60.4022 18.5553 60.5049 18.7233 60.5795 18.966C60.8315 19.722 61.0975 20.4687 61.3775 21.206C61.6575 21.9433 61.9562 22.704 62.2735 23.488H62.3295C62.5162 23.0867 62.7075 22.6013 62.9035 22.032C63.0995 21.4627 63.2862 20.8653 63.4635 20.24C63.6502 19.6147 63.7995 19.022 63.9115 18.462C64.0049 18.4247 64.1029 18.392 64.2055 18.364C64.3082 18.336 64.4155 18.322 64.5275 18.322C64.7329 18.322 64.9009 18.3687 65.0315 18.462C65.1715 18.5553 65.2415 18.7047 65.2415 18.91C65.2415 19.0967 65.1995 19.372 65.1155 19.736C65.0409 20.0907 64.9289 20.4967 64.7795 20.954C64.6395 21.4113 64.4762 21.892 64.2895 22.396C64.1122 22.8907 63.9162 23.376 63.7015 23.852C63.4869 24.328 63.2722 24.7573 63.0575 25.14C62.6095 25.9613 62.1942 26.5867 61.8115 27.016C61.4382 27.4453 61.0835 27.66 60.7475 27.66C60.4862 27.66 60.2809 27.5853 60.1315 27.436C59.9822 27.296 59.8935 27.1233 59.8655 26.918C60.0615 26.7407 60.2809 26.5167 60.5235 26.246C60.7662 25.9847 60.9995 25.6953 61.2235 25.378C61.4569 25.07 61.6482 24.776 61.7975 24.496C61.6389 24.4493 61.4849 24.3607 61.3355 24.23C61.1862 24.09 61.0229 23.8427 60.8455 23.488ZM68.0846 21.304H69.5126V23.096C69.5126 23.432 69.6106 23.67 69.8066 23.81C70.0026 23.95 70.278 24.02 70.6326 24.02C70.782 24.02 70.95 23.9967 71.1366 23.95C71.3233 23.9033 71.4773 23.8473 71.5986 23.782C71.664 23.8473 71.72 23.9313 71.7666 24.034C71.8226 24.1273 71.8506 24.2347 71.8506 24.356C71.8506 24.5987 71.7246 24.7993 71.4726 24.958C71.23 25.1073 70.8613 25.182 70.3666 25.182C69.676 25.182 69.1206 25.028 68.7006 24.72C68.29 24.412 68.0846 23.8987 68.0846 23.18V21.304ZM68.8966 19.736V18.588H71.6826C71.72 18.644 71.7526 18.7233 71.7806 18.826C71.818 18.9287 71.8366 19.036 71.8366 19.148C71.8366 19.344 71.79 19.4933 71.6966 19.596C71.6126 19.6893 71.4913 19.736 71.3326 19.736H68.8966ZM69.5126 21.696H68.0846V16.642C68.1406 16.6233 68.2293 16.6 68.3506 16.572C68.472 16.544 68.6026 16.53 68.7426 16.53C69.004 16.53 69.1953 16.5813 69.3166 16.684C69.4473 16.7867 69.5126 16.9547 69.5126 17.188V21.696ZM74.0896 19.848V21.906H72.6476V19.82C72.6476 19.596 72.6943 19.414 72.7876 19.274C72.8903 19.1247 73.0396 18.9847 73.2356 18.854C73.497 18.686 73.8376 18.546 74.2576 18.434C74.687 18.322 75.1536 18.266 75.6576 18.266C76.4696 18.266 76.8756 18.4947 76.8756 18.952C76.8756 19.064 76.857 19.1667 76.8196 19.26C76.7916 19.3533 76.7543 19.4373 76.7076 19.512C76.6143 19.4933 76.493 19.4747 76.3436 19.456C76.2036 19.4373 76.059 19.428 75.9096 19.428C75.527 19.428 75.177 19.47 74.8596 19.554C74.5516 19.6287 74.295 19.7267 74.0896 19.848ZM72.6476 21.304L74.0896 21.43V24.972C74.0243 24.9907 73.931 25.014 73.8096 25.042C73.6976 25.07 73.5716 25.084 73.4316 25.084C73.1703 25.084 72.9743 25.0327 72.8436 24.93C72.713 24.8273 72.6476 24.6593 72.6476 24.426V21.304ZM79.7437 24.076C80.0797 24.076 80.3643 24.0433 80.5977 23.978C80.8403 23.9033 81.0177 23.8333 81.1297 23.768V21.962L79.5757 22.116C79.1463 22.1533 78.8197 22.2513 78.5957 22.41C78.381 22.5593 78.2737 22.7833 78.2737 23.082C78.2737 23.39 78.395 23.6327 78.6377 23.81C78.8803 23.9873 79.249 24.076 79.7437 24.076ZM79.7017 18.252C80.5697 18.252 81.2557 18.4433 81.7597 18.826C82.273 19.1993 82.5297 19.792 82.5297 20.604V23.866C82.5297 24.0807 82.483 24.2487 82.3897 24.37C82.2963 24.4913 82.1657 24.5987 81.9977 24.692C81.755 24.832 81.4377 24.9487 81.0457 25.042C80.663 25.1447 80.229 25.196 79.7437 25.196C78.8383 25.196 78.129 25.0233 77.6157 24.678C77.1117 24.3233 76.8597 23.8053 76.8597 23.124C76.8597 22.508 77.0603 22.0367 77.4617 21.71C77.863 21.374 78.4323 21.1733 79.1697 21.108L81.1297 20.912V20.59C81.1297 20.17 80.9943 19.8667 80.7237 19.68C80.453 19.4933 80.0843 19.4 79.6177 19.4C79.2443 19.4 78.8803 19.4513 78.5257 19.554C78.1803 19.6567 77.8723 19.7733 77.6017 19.904C77.5177 19.8293 77.443 19.7407 77.3777 19.638C77.3123 19.526 77.2797 19.4093 77.2797 19.288C77.2797 18.9987 77.4383 18.7793 77.7557 18.63C78.017 18.5087 78.3157 18.4153 78.6517 18.35C78.997 18.2847 79.347 18.252 79.7017 18.252ZM89.5964 20.702V22.088H88.1544V20.758C88.1544 20.2913 88.0237 19.9507 87.7624 19.736C87.5011 19.5213 87.1511 19.414 86.7124 19.414C86.3857 19.414 86.0917 19.456 85.8304 19.54C85.5691 19.624 85.3451 19.7173 85.1584 19.82V22.088H83.7164V19.792C83.7164 19.5773 83.7584 19.4047 83.8424 19.274C83.9357 19.134 84.0804 19.0033 84.2764 18.882C84.5377 18.7233 84.8784 18.5787 85.2984 18.448C85.7184 18.3173 86.1897 18.252 86.7124 18.252C87.6177 18.252 88.3224 18.4573 88.8264 18.868C89.3397 19.2693 89.5964 19.8807 89.5964 20.702ZM83.7164 21.36H85.1584V24.972C85.0931 24.9907 84.9997 25.014 84.8784 25.042C84.7664 25.07 84.6404 25.084 84.5004 25.084C84.2391 25.084 84.0431 25.0327 83.9124 24.93C83.7817 24.8273 83.7164 24.6593 83.7164 24.426V21.36ZM88.1544 21.36H89.5964V24.972C89.5311 24.9907 89.4377 25.014 89.3164 25.042C89.1951 25.07 89.0691 25.084 88.9384 25.084C88.6677 25.084 88.4671 25.0327 88.3364 24.93C88.2151 24.8273 88.1544 24.6593 88.1544 24.426V21.36ZM95.681 23.194C95.681 23.8193 95.4477 24.3093 94.981 24.664C94.5237 25.0187 93.8564 25.196 92.979 25.196C92.251 25.196 91.6537 25.084 91.187 24.86C90.7204 24.636 90.487 24.3653 90.487 24.048C90.487 23.908 90.5197 23.782 90.585 23.67C90.6597 23.5487 90.7577 23.4507 90.879 23.376C91.1404 23.544 91.439 23.698 91.775 23.838C92.1204 23.978 92.5077 24.048 92.937 24.048C93.8144 24.048 94.253 23.768 94.253 23.208C94.253 22.9653 94.1784 22.774 94.029 22.634C93.8797 22.4847 93.6557 22.3727 93.357 22.298L92.377 22.046C91.7517 21.906 91.2897 21.682 90.991 21.374C90.6924 21.066 90.543 20.6693 90.543 20.184C90.543 19.6427 90.7624 19.1853 91.201 18.812C91.649 18.4387 92.2977 18.252 93.147 18.252C93.5857 18.252 93.973 18.2987 94.309 18.392C94.6544 18.476 94.9204 18.5973 95.107 18.756C95.303 18.9147 95.401 19.092 95.401 19.288C95.401 19.428 95.3684 19.554 95.303 19.666C95.2377 19.778 95.1537 19.862 95.051 19.918C94.939 19.8527 94.7897 19.778 94.603 19.694C94.4164 19.61 94.2017 19.54 93.959 19.484C93.7257 19.428 93.483 19.4 93.231 19.4C92.839 19.4 92.5264 19.47 92.293 19.61C92.069 19.7407 91.957 19.932 91.957 20.184C91.957 20.3613 92.0224 20.52 92.153 20.66C92.2837 20.7907 92.503 20.8887 92.811 20.954L93.637 21.164C94.337 21.3227 94.8504 21.57 95.177 21.906C95.513 22.2327 95.681 22.662 95.681 23.194ZM99.1495 24.076C99.4855 24.076 99.7702 24.0433 100.004 23.978C100.246 23.9033 100.424 23.8333 100.536 23.768V21.962L98.9815 22.116C98.5522 22.1533 98.2255 22.2513 98.0015 22.41C97.7869 22.5593 97.6795 22.7833 97.6795 23.082C97.6795 23.39 97.8009 23.6327 98.0435 23.81C98.2862 23.9873 98.6549 24.076 99.1495 24.076ZM99.1075 18.252C99.9755 18.252 100.662 18.4433 101.166 18.826C101.679 19.1993 101.936 19.792 101.936 20.604V23.866C101.936 24.0807 101.889 24.2487 101.796 24.37C101.702 24.4913 101.572 24.5987 101.404 24.692C101.161 24.832 100.844 24.9487 100.452 25.042C100.069 25.1447 99.6349 25.196 99.1495 25.196C98.2442 25.196 97.5349 25.0233 97.0215 24.678C96.5175 24.3233 96.2655 23.8053 96.2655 23.124C96.2655 22.508 96.4662 22.0367 96.8675 21.71C97.2689 21.374 97.8382 21.1733 98.5755 21.108L100.536 20.912V20.59C100.536 20.17 100.4 19.8667 100.13 19.68C99.8589 19.4933 99.4902 19.4 99.0235 19.4C98.6502 19.4 98.2862 19.4513 97.9315 19.554C97.5862 19.6567 97.2782 19.7733 97.0075 19.904C96.9235 19.8293 96.8489 19.7407 96.7835 19.638C96.7182 19.526 96.6855 19.4093 96.6855 19.288C96.6855 18.9987 96.8442 18.7793 97.1615 18.63C97.4229 18.5087 97.7215 18.4153 98.0575 18.35C98.4029 18.2847 98.7529 18.252 99.1075 18.252ZM106.328 19.428C105.74 19.428 105.246 19.6287 104.844 20.03C104.443 20.422 104.242 20.9913 104.242 21.738C104.242 22.4753 104.434 23.04 104.816 23.432C105.208 23.824 105.712 24.02 106.328 24.02C106.692 24.02 107 23.9733 107.252 23.88C107.504 23.7773 107.724 23.6653 107.91 23.544C108.032 23.6187 108.13 23.7073 108.204 23.81C108.279 23.9127 108.316 24.034 108.316 24.174C108.316 24.4633 108.125 24.706 107.742 24.902C107.36 25.0887 106.865 25.182 106.258 25.182C105.577 25.182 104.975 25.056 104.452 24.804C103.93 24.552 103.519 24.1693 103.22 23.656C102.931 23.1427 102.786 22.5033 102.786 21.738C102.786 20.9633 102.94 20.3193 103.248 19.806C103.556 19.2927 103.972 18.9053 104.494 18.644C105.017 18.3827 105.591 18.252 106.216 18.252C106.814 18.252 107.299 18.3593 107.672 18.574C108.055 18.7793 108.246 19.022 108.246 19.302C108.246 19.4327 108.209 19.5493 108.134 19.652C108.069 19.7547 107.985 19.8387 107.882 19.904C107.686 19.7733 107.467 19.6613 107.224 19.568C106.982 19.4747 106.683 19.428 106.328 19.428ZM109.19 21.304H110.618V23.096C110.618 23.432 110.716 23.67 110.912 23.81C111.108 23.95 111.384 24.02 111.738 24.02C111.888 24.02 112.056 23.9967 112.242 23.95C112.429 23.9033 112.583 23.8473 112.704 23.782C112.77 23.8473 112.826 23.9313 112.872 24.034C112.928 24.1273 112.956 24.2347 112.956 24.356C112.956 24.5987 112.83 24.7993 112.578 24.958C112.336 25.1073 111.967 25.182 111.472 25.182C110.782 25.182 110.226 25.028 109.806 24.72C109.396 24.412 109.19 23.8987 109.19 23.18V21.304ZM110.002 19.736V18.588H112.788C112.826 18.644 112.858 18.7233 112.886 18.826C112.924 18.9287 112.942 19.036 112.942 19.148C112.942 19.344 112.896 19.4933 112.802 19.596C112.718 19.6893 112.597 19.736 112.438 19.736H110.002ZM110.618 21.696H109.19V16.642C109.246 16.6233 109.335 16.6 109.456 16.572C109.578 16.544 109.708 16.53 109.848 16.53C110.11 16.53 110.301 16.5813 110.422 16.684C110.553 16.7867 110.618 16.9547 110.618 17.188V21.696ZM113.669 16.446C113.669 16.2033 113.753 16.0027 113.921 15.844C114.089 15.6853 114.295 15.606 114.537 15.606C114.799 15.606 115.009 15.6853 115.167 15.844C115.326 16.0027 115.405 16.2033 115.405 16.446C115.405 16.6793 115.326 16.88 115.167 17.048C115.009 17.2067 114.799 17.286 114.537 17.286C114.295 17.286 114.089 17.2067 113.921 17.048C113.753 16.88 113.669 16.6793 113.669 16.446ZM113.823 21.304H115.265V24.972C115.2 24.9907 115.107 25.014 114.985 25.042C114.873 25.07 114.747 25.084 114.607 25.084C114.346 25.084 114.15 25.0327 114.019 24.93C113.889 24.8273 113.823 24.6593 113.823 24.426V21.304ZM115.265 22.018H113.823V18.49C113.889 18.4713 113.982 18.4527 114.103 18.434C114.225 18.406 114.355 18.392 114.495 18.392C114.757 18.392 114.948 18.4433 115.069 18.546C115.2 18.6393 115.265 18.8073 115.265 19.05V22.018ZM122.839 21.724C122.839 22.424 122.704 23.0353 122.433 23.558C122.163 24.0807 121.78 24.4867 121.285 24.776C120.791 25.056 120.207 25.196 119.535 25.196C118.863 25.196 118.28 25.056 117.785 24.776C117.291 24.4867 116.908 24.0853 116.637 23.572C116.367 23.0493 116.231 22.4333 116.231 21.724C116.231 21.0147 116.367 20.4033 116.637 19.89C116.917 19.3673 117.305 18.966 117.799 18.686C118.303 18.3967 118.882 18.252 119.535 18.252C120.198 18.252 120.777 18.3967 121.271 18.686C121.766 18.966 122.149 19.3673 122.419 19.89C122.699 20.4033 122.839 21.0147 122.839 21.724ZM119.535 19.414C118.975 19.414 118.527 19.6193 118.191 20.03C117.865 20.4407 117.701 21.0053 117.701 21.724C117.701 22.452 117.86 23.0213 118.177 23.432C118.504 23.8333 118.957 24.034 119.535 24.034C120.114 24.034 120.562 23.8287 120.879 23.418C121.206 23.0073 121.369 22.4427 121.369 21.724C121.369 21.0053 121.206 20.4407 120.879 20.03C120.553 19.6193 120.105 19.414 119.535 19.414ZM129.595 20.702V22.088H128.153V20.758C128.153 20.2913 128.022 19.9507 127.761 19.736C127.499 19.5213 127.149 19.414 126.711 19.414C126.384 19.414 126.09 19.456 125.829 19.54C125.567 19.624 125.343 19.7173 125.157 19.82V22.088H123.715V19.792C123.715 19.5773 123.757 19.4047 123.841 19.274C123.934 19.134 124.079 19.0033 124.275 18.882C124.536 18.7233 124.877 18.5787 125.297 18.448C125.717 18.3173 126.188 18.252 126.711 18.252C127.616 18.252 128.321 18.4573 128.825 18.868C129.338 19.2693 129.595 19.8807 129.595 20.702ZM123.715 21.36H125.157V24.972C125.091 24.9907 124.998 25.014 124.877 25.042C124.765 25.07 124.639 25.084 124.499 25.084C124.237 25.084 124.041 25.0327 123.911 24.93C123.78 24.8273 123.715 24.6593 123.715 24.426V21.36ZM128.153 21.36H129.595V24.972C129.529 24.9907 129.436 25.014 129.315 25.042C129.193 25.07 129.067 25.084 128.937 25.084C128.666 25.084 128.465 25.0327 128.335 24.93C128.213 24.8273 128.153 24.6593 128.153 24.426V21.36ZM135.878 25.182C136.504 25.182 137.059 25.056 137.544 24.804C138.039 24.5427 138.422 24.1553 138.692 23.642C138.972 23.1193 139.112 22.4707 139.112 21.696C139.112 20.8933 138.963 20.24 138.664 19.736C138.366 19.232 137.955 18.8587 137.432 18.616C136.919 18.3733 136.34 18.252 135.696 18.252C135.22 18.252 134.791 18.3127 134.408 18.434C134.035 18.546 133.718 18.6813 133.456 18.84C133.26 18.9613 133.12 19.0873 133.036 19.218C132.962 19.3393 132.924 19.498 132.924 19.694V24.3H134.366V19.778C134.525 19.6847 134.712 19.6007 134.926 19.526C135.141 19.4513 135.398 19.414 135.696 19.414C136.051 19.414 136.378 19.4887 136.676 19.638C136.975 19.7873 137.213 20.03 137.39 20.366C137.568 20.6927 137.656 21.136 137.656 21.696C137.656 22.4987 137.474 23.0867 137.11 23.46C136.756 23.8333 136.275 24.02 135.668 24.02C135.304 24.02 134.987 23.9593 134.716 23.838C134.455 23.7073 134.236 23.5627 134.058 23.404V24.678C134.236 24.8087 134.488 24.9253 134.814 25.028C135.141 25.1307 135.496 25.182 135.878 25.182ZM134.366 23.88L132.924 23.852V26.946C132.924 27.1887 132.99 27.3613 133.12 27.464C133.251 27.5667 133.447 27.618 133.708 27.618C133.848 27.618 133.974 27.604 134.086 27.576C134.208 27.5573 134.301 27.534 134.366 27.506V23.88ZM140.115 21.304L141.543 21.43V24.972C141.487 24.9907 141.399 25.014 141.277 25.042C141.156 25.07 141.025 25.084 140.885 25.084C140.624 25.084 140.428 25.0327 140.297 24.93C140.176 24.8273 140.115 24.6593 140.115 24.426V21.304ZM141.543 22.144L140.115 22.018V15.914C140.171 15.8953 140.26 15.872 140.381 15.844C140.503 15.816 140.629 15.802 140.759 15.802C141.03 15.802 141.226 15.8533 141.347 15.956C141.478 16.0493 141.543 16.2173 141.543 16.46V22.144ZM145.35 24.076C145.686 24.076 145.97 24.0433 146.204 23.978C146.446 23.9033 146.624 23.8333 146.736 23.768V21.962L145.182 22.116C144.752 22.1533 144.426 22.2513 144.202 22.41C143.987 22.5593 143.88 22.7833 143.88 23.082C143.88 23.39 144.001 23.6327 144.244 23.81C144.486 23.9873 144.855 24.076 145.35 24.076ZM145.308 18.252C146.176 18.252 146.862 18.4433 147.366 18.826C147.879 19.1993 148.136 19.792 148.136 20.604V23.866C148.136 24.0807 148.089 24.2487 147.996 24.37C147.902 24.4913 147.772 24.5987 147.604 24.692C147.361 24.832 147.044 24.9487 146.652 25.042C146.269 25.1447 145.835 25.196 145.35 25.196C144.444 25.196 143.735 25.0233 143.222 24.678C142.718 24.3233 142.466 23.8053 142.466 23.124C142.466 22.508 142.666 22.0367 143.068 21.71C143.469 21.374 144.038 21.1733 144.776 21.108L146.736 20.912V20.59C146.736 20.17 146.6 19.8667 146.33 19.68C146.059 19.4933 145.69 19.4 145.224 19.4C144.85 19.4 144.486 19.4513 144.132 19.554C143.786 19.6567 143.478 19.7733 143.208 19.904C143.124 19.8293 143.049 19.7407 142.984 19.638C142.918 19.526 142.886 19.4093 142.886 19.288C142.886 18.9987 143.044 18.7793 143.362 18.63C143.623 18.5087 143.922 18.4153 144.258 18.35C144.603 18.2847 144.953 18.252 145.308 18.252ZM155.202 20.702V22.088H153.76V20.758C153.76 20.2913 153.63 19.9507 153.368 19.736C153.107 19.5213 152.757 19.414 152.318 19.414C151.992 19.414 151.698 19.456 151.436 19.54C151.175 19.624 150.951 19.7173 150.764 19.82V22.088H149.322V19.792C149.322 19.5773 149.364 19.4047 149.448 19.274C149.542 19.134 149.686 19.0033 149.882 18.882C150.144 18.7233 150.484 18.5787 150.904 18.448C151.324 18.3173 151.796 18.252 152.318 18.252C153.224 18.252 153.928 18.4573 154.432 18.868C154.946 19.2693 155.202 19.8807 155.202 20.702ZM149.322 21.36H150.764V24.972C150.699 24.9907 150.606 25.014 150.484 25.042C150.372 25.07 150.246 25.084 150.106 25.084C149.845 25.084 149.649 25.0327 149.518 24.93C149.388 24.8273 149.322 24.6593 149.322 24.426V21.36ZM153.76 21.36H155.202V24.972C155.137 24.9907 155.044 25.014 154.922 25.042C154.801 25.07 154.675 25.084 154.544 25.084C154.274 25.084 154.073 25.0327 153.942 24.93C153.821 24.8273 153.76 24.6593 153.76 24.426V21.36ZM156.457 21.304H157.885V23.096C157.885 23.432 157.983 23.67 158.179 23.81C158.375 23.95 158.65 24.02 159.005 24.02C159.154 24.02 159.322 23.9967 159.509 23.95C159.696 23.9033 159.85 23.8473 159.971 23.782C160.036 23.8473 160.092 23.9313 160.139 24.034C160.195 24.1273 160.223 24.2347 160.223 24.356C160.223 24.5987 160.097 24.7993 159.845 24.958C159.602 25.1073 159.234 25.182 158.739 25.182C158.048 25.182 157.493 25.028 157.073 24.72C156.662 24.412 156.457 23.8987 156.457 23.18V21.304ZM157.269 19.736V18.588H160.055C160.092 18.644 160.125 18.7233 160.153 18.826C160.19 18.9287 160.209 19.036 160.209 19.148C160.209 19.344 160.162 19.4933 160.069 19.596C159.985 19.6893 159.864 19.736 159.705 19.736H157.269ZM157.885 21.696H156.457V16.642C156.513 16.6233 156.602 16.6 156.723 16.572C156.844 16.544 156.975 16.53 157.115 16.53C157.376 16.53 157.568 16.5813 157.689 16.684C157.82 16.7867 157.885 16.9547 157.885 17.188V21.696ZM165.946 23.194C165.946 23.8193 165.713 24.3093 165.246 24.664C164.789 25.0187 164.122 25.196 163.244 25.196C162.516 25.196 161.919 25.084 161.452 24.86C160.986 24.636 160.752 24.3653 160.752 24.048C160.752 23.908 160.785 23.782 160.85 23.67C160.925 23.5487 161.023 23.4507 161.144 23.376C161.406 23.544 161.704 23.698 162.04 23.838C162.386 23.978 162.773 24.048 163.202 24.048C164.08 24.048 164.518 23.768 164.518 23.208C164.518 22.9653 164.444 22.774 164.294 22.634C164.145 22.4847 163.921 22.3727 163.622 22.298L162.642 22.046C162.017 21.906 161.555 21.682 161.256 21.374C160.958 21.066 160.808 20.6693 160.808 20.184C160.808 19.6427 161.028 19.1853 161.466 18.812C161.914 18.4387 162.563 18.252 163.412 18.252C163.851 18.252 164.238 18.2987 164.574 18.392C164.92 18.476 165.186 18.5973 165.372 18.756C165.568 18.9147 165.666 19.092 165.666 19.288C165.666 19.428 165.634 19.554 165.568 19.666C165.503 19.778 165.419 19.862 165.316 19.918C165.204 19.8527 165.055 19.778 164.868 19.694C164.682 19.61 164.467 19.54 164.224 19.484C163.991 19.428 163.748 19.4 163.496 19.4C163.104 19.4 162.792 19.47 162.558 19.61C162.334 19.7407 162.222 19.932 162.222 20.184C162.222 20.3613 162.288 20.52 162.418 20.66C162.549 20.7907 162.768 20.8887 163.076 20.954L163.902 21.164C164.602 21.3227 165.116 21.57 165.442 21.906C165.778 22.2327 165.946 22.662 165.946 23.194ZM168.931 21.304H170.359V23.096C170.359 23.432 170.457 23.67 170.653 23.81C170.849 23.95 171.124 24.02 171.479 24.02C171.628 24.02 171.796 23.9967 171.983 23.95C172.17 23.9033 172.324 23.8473 172.445 23.782C172.51 23.8473 172.566 23.9313 172.613 24.034C172.669 24.1273 172.697 24.2347 172.697 24.356C172.697 24.5987 172.571 24.7993 172.319 24.958C172.076 25.1073 171.708 25.182 171.213 25.182C170.522 25.182 169.967 25.028 169.547 24.72C169.136 24.412 168.931 23.8987 168.931 23.18V21.304ZM169.743 19.736V18.588H172.529C172.566 18.644 172.599 18.7233 172.627 18.826C172.664 18.9287 172.683 19.036 172.683 19.148C172.683 19.344 172.636 19.4933 172.543 19.596C172.459 19.6893 172.338 19.736 172.179 19.736H169.743ZM170.359 21.696H168.931V16.642C168.987 16.6233 169.076 16.6 169.197 16.572C169.318 16.544 169.449 16.53 169.589 16.53C169.85 16.53 170.042 16.5813 170.163 16.684C170.294 16.7867 170.359 16.9547 170.359 17.188V21.696ZM174.936 19.848V21.906H173.494V19.82C173.494 19.596 173.541 19.414 173.634 19.274C173.737 19.1247 173.886 18.9847 174.082 18.854C174.343 18.686 174.684 18.546 175.104 18.434C175.533 18.322 176 18.266 176.504 18.266C177.316 18.266 177.722 18.4947 177.722 18.952C177.722 19.064 177.703 19.1667 177.666 19.26C177.638 19.3533 177.601 19.4373 177.554 19.512C177.461 19.4933 177.339 19.4747 177.19 19.456C177.05 19.4373 176.905 19.428 176.756 19.428C176.373 19.428 176.023 19.47 175.706 19.554C175.398 19.6287 175.141 19.7267 174.936 19.848ZM173.494 21.304L174.936 21.43V24.972C174.871 24.9907 174.777 25.014 174.656 25.042C174.544 25.07 174.418 25.084 174.278 25.084C174.017 25.084 173.821 25.0327 173.69 24.93C173.559 24.8273 173.494 24.6593 173.494 24.426V21.304ZM178.673 22.522L178.603 21.472L182.579 20.912C182.551 20.4733 182.397 20.1093 182.117 19.82C181.837 19.5213 181.441 19.372 180.927 19.372C180.405 19.372 179.971 19.5587 179.625 19.932C179.28 20.3053 179.103 20.8373 179.093 21.528L179.121 22.06C179.196 22.7227 179.434 23.222 179.835 23.558C180.237 23.8847 180.764 24.048 181.417 24.048C181.809 24.048 182.169 23.9873 182.495 23.866C182.822 23.7447 183.083 23.614 183.279 23.474C183.391 23.5393 183.48 23.628 183.545 23.74C183.62 23.852 183.657 23.9733 183.657 24.104C183.657 24.3093 183.555 24.496 183.349 24.664C183.144 24.832 182.864 24.9627 182.509 25.056C182.164 25.1493 181.772 25.196 181.333 25.196C180.615 25.196 179.985 25.0653 179.443 24.804C178.902 24.5333 178.482 24.1367 178.183 23.614C177.885 23.082 177.735 22.4333 177.735 21.668C177.735 21.1173 177.815 20.632 177.973 20.212C178.141 19.7827 178.37 19.4233 178.659 19.134C178.949 18.8447 179.289 18.6253 179.681 18.476C180.073 18.3267 180.493 18.252 180.941 18.252C181.529 18.252 182.047 18.378 182.495 18.63C182.953 18.8727 183.307 19.2133 183.559 19.652C183.811 20.0907 183.937 20.59 183.937 21.15C183.937 21.3833 183.881 21.556 183.769 21.668C183.657 21.7707 183.499 21.836 183.293 21.864L178.673 22.522ZM185.356 22.522L185.286 21.472L189.262 20.912C189.234 20.4733 189.08 20.1093 188.8 19.82C188.52 19.5213 188.124 19.372 187.61 19.372C187.088 19.372 186.654 19.5587 186.308 19.932C185.963 20.3053 185.786 20.8373 185.776 21.528L185.804 22.06C185.879 22.7227 186.117 23.222 186.518 23.558C186.92 23.8847 187.447 24.048 188.1 24.048C188.492 24.048 188.852 23.9873 189.178 23.866C189.505 23.7447 189.766 23.614 189.962 23.474C190.074 23.5393 190.163 23.628 190.228 23.74C190.303 23.852 190.34 23.9733 190.34 24.104C190.34 24.3093 190.238 24.496 190.032 24.664C189.827 24.832 189.547 24.9627 189.192 25.056C188.847 25.1493 188.455 25.196 188.016 25.196C187.298 25.196 186.668 25.0653 186.126 24.804C185.585 24.5333 185.165 24.1367 184.866 23.614C184.568 23.082 184.418 22.4333 184.418 21.668C184.418 21.1173 184.498 20.632 184.656 20.212C184.824 19.7827 185.053 19.4233 185.342 19.134C185.632 18.8447 185.972 18.6253 186.364 18.476C186.756 18.3267 187.176 18.252 187.624 18.252C188.212 18.252 188.73 18.378 189.178 18.63C189.636 18.8727 189.99 19.2133 190.242 19.652C190.494 20.0907 190.62 20.59 190.62 21.15C190.62 21.3833 190.564 21.556 190.452 21.668C190.34 21.7707 190.182 21.836 189.976 21.864L185.356 22.522ZM196.35 23.194C196.35 23.8193 196.116 24.3093 195.65 24.664C195.192 25.0187 194.525 25.196 193.648 25.196C192.92 25.196 192.322 25.084 191.856 24.86C191.389 24.636 191.156 24.3653 191.156 24.048C191.156 23.908 191.188 23.782 191.254 23.67C191.328 23.5487 191.426 23.4507 191.548 23.376C191.809 23.544 192.108 23.698 192.444 23.838C192.789 23.978 193.176 24.048 193.606 24.048C194.483 24.048 194.922 23.768 194.922 23.208C194.922 22.9653 194.847 22.774 194.698 22.634C194.548 22.4847 194.324 22.3727 194.026 22.298L193.046 22.046C192.42 21.906 191.958 21.682 191.66 21.374C191.361 21.066 191.212 20.6693 191.212 20.184C191.212 19.6427 191.431 19.1853 191.87 18.812C192.318 18.4387 192.966 18.252 193.816 18.252C194.254 18.252 194.642 18.2987 194.978 18.392C195.323 18.476 195.589 18.5973 195.776 18.756C195.972 18.9147 196.07 19.092 196.07 19.288C196.07 19.428 196.037 19.554 195.972 19.666C195.906 19.778 195.822 19.862 195.72 19.918C195.608 19.8527 195.458 19.778 195.272 19.694C195.085 19.61 194.87 19.54 194.628 19.484C194.394 19.428 194.152 19.4 193.9 19.4C193.508 19.4 193.195 19.47 192.962 19.61C192.738 19.7407 192.626 19.932 192.626 20.184C192.626 20.3613 192.691 20.52 192.822 20.66C192.952 20.7907 193.172 20.8887 193.48 20.954L194.306 21.164C195.006 21.3227 195.519 21.57 195.846 21.906C196.182 22.2327 196.35 22.662 196.35 23.194Z" fill="white"/>
<defs>
<linearGradient id="paint0_linear_1_984" x1="-39.0538" y1="-9.72971" x2="76.3069" y2="58.19" gradientUnits="userSpaceOnUse">
<stop offset="0.0138" stop-color="#238C47"/>
<stop offset="0.9893" stop-color="#44A055"/>
</linearGradient>
<linearGradient id="paint1_linear_1_984" x1="34.4669" y1="-6.99905" x2="150.402" y2="59.936" gradientUnits="userSpaceOnUse">
<stop offset="0.0138" stop-color="#238C47"/>
<stop offset="0.9893" stop-color="#44A055"/>
</linearGradient>
<linearGradient id="paint2_linear_1_984" x1="219.383" y1="10.2052" x2="208.696" y2="34.1195" gradientUnits="userSpaceOnUse">
<stop offset="0.00322645" stop-color="#33A358"/>
<stop offset="0.9878" stop-color="#30995C"/>
</linearGradient>
<linearGradient id="paint3_linear_1_984" x1="202.998" y1="1.94258" x2="202.998" y2="29.4779" gradientUnits="userSpaceOnUse">
<stop offset="0.00992662" stop-color="#6DCE59"/>
<stop offset="0.9878" stop-color="#42C14B"/>
</linearGradient>
<linearGradient id="paint4_linear_1_984" x1="155" y1="9.41223" x2="168.025" y2="9.41223" gradientUnits="userSpaceOnUse">
<stop stop-color="#0C131B"/>
<stop offset="0.9979" stop-color="#05080B"/>
</linearGradient>
<linearGradient id="paint5_linear_1_984" x1="173.004" y1="9.76877" x2="191.028" y2="9.76877" gradientUnits="userSpaceOnUse">
<stop/>
<stop offset="0.9979"/>
</linearGradient>
<linearGradient id="paint6_linear_1_984" x1="165.977" y1="20.4194" x2="177.882" y2="20.4194" gradientUnits="userSpaceOnUse">
<stop/>
<stop offset="0.9979"/>
</linearGradient>
</defs>
</svg>
