<svg width="21" height="21" viewBox="0 0 21 21" fill="none" xmlns="http://www.w3.org/2000/svg">
<path opacity="0.5" d="M16.8333 1V1C16.9881 1 17.0655 1 17.1309 1.00286C18.6849 1.0707 19.9293 2.31511 19.9971 3.86914C20 3.93454 20 4.01192 20 4.16666L20 6.42857C20 6.80809 20 6.99786 19.9023 7.13024C19.8726 7.17043 19.8371 7.20596 19.7969 7.23563C19.6645 7.33333 19.4748 7.33333 19.0952 7.33333L13.6667 7.33333M16.8333 1V1C16.6786 1 16.6012 1 16.5358 1.00286C14.9818 1.0707 13.7374 2.31511 13.6695 3.86914C13.6667 3.93454 13.6667 4.01192 13.6667 4.16667L13.6667 7.33333M16.8333 1L5 0.999999C3.11438 0.999999 2.17157 0.999999 1.58579 1.58579C0.999999 2.17157 0.999999 3.11438 0.999999 5L1 20L4.16667 18.9444L7.33333 20L10.5 18.9444L13.6667 20L13.6667 7.33333" stroke="black"/>
</svg>
