<svg width="15" height="27" viewBox="0 0 15 27" fill="none" xmlns="http://www.w3.org/2000/svg">
<path d="M14.902 15.3028C14.6518 12.6979 10.5572 13.6775 9.45487 13.989C10.1166 13.1821 11.1318 13.1336 11.3852 12.7043C11.6111 12.3218 11.1996 12.0636 10.7573 12.1314C12.1211 11.1065 13.6431 10.6368 13.1105 9.3021C12.4068 7.53804 9.13531 8.80177 8.8335 8.92282C9.35481 7.68491 10.6121 7.71397 10.8864 7.24915C11.1285 6.8392 10.5604 6.58419 10.0956 6.79724C10.0843 6.80208 10.073 6.81015 10.0617 6.81499C10.8945 5.87082 11.7515 5.07837 11.3222 4.38275C10.6444 3.28203 9.28541 3.97442 8.71407 4.33918C8.99974 3.84369 9.47747 3.58869 9.5275 3.29495C9.58883 2.92697 9.10303 2.90275 8.82382 3.18681C8.77862 3.23362 8.73021 3.3014 8.68502 3.3821C8.95939 1.65355 8.81413 0.0815553 7.70534 0.00247131C6.68694 -0.0701568 5.97356 1.46956 5.96711 3.10127C5.92192 3.0238 5.87672 2.95924 5.83315 2.91567C5.55393 2.63 5.06813 2.65582 5.12946 3.0238C5.19079 3.39017 5.91546 3.69359 6.10914 4.47798C5.8154 4.273 4.06264 3.12225 3.32829 4.29399C2.78761 5.15745 3.9077 5.937 4.82927 6.97639C4.73082 6.89407 4.63721 6.83274 4.55813 6.79562C4.09331 6.58419 3.52519 6.83758 3.76728 7.24753C4.03197 7.6946 5.21016 7.6833 5.76213 8.7937C5.24244 8.62585 2.09361 7.68169 1.54164 9.16007C0.992891 10.6304 2.83925 11.05 4.24985 12.1265C3.82054 12.0765 3.43481 12.3315 3.65592 12.7043C3.91092 13.1352 4.93418 13.1821 5.5959 14.0003C5.60397 14.031 5.61365 14.0584 5.62172 14.0907C5.62172 14.0907 0.644278 12.254 0.0503412 14.8105C-0.319255 16.4051 1.40445 16.8958 3.31376 17.6446C2.78438 17.8222 2.47289 18.3015 2.91027 18.6808C3.63494 19.3086 5.87672 18.4129 7.32767 20.7564C7.30992 20.7047 7.28733 20.6579 7.26796 20.6079C7.31315 20.6999 7.35834 20.7951 7.39869 20.8935C7.42128 20.8387 7.44872 20.787 7.47293 20.7338C8.92388 18.421 11.1528 19.307 11.8742 18.6808C12.1938 18.4048 12.1131 18.0756 11.8435 17.848C13.564 17.3267 15.0537 16.8942 14.902 15.3028Z" fill="url(#paint0_linear_648_1303)"/>
<path d="M11.2367 16.4082C11.1737 16.2677 11.0075 16.2048 10.8671 16.2677L7.93611 17.5864L7.81184 12.0876L10.1763 10.6254C10.2618 10.5721 10.2973 10.4623 10.2554 10.3687C10.2086 10.2654 10.0891 10.2202 9.98584 10.2671L7.79408 11.2548L7.70855 7.48782C7.70371 7.29737 7.54876 7.14404 7.3567 7.14404C7.16625 7.14404 7.0097 7.29737 7.00486 7.48782L6.92416 11.2322L4.78244 10.2687C4.69045 10.2267 4.58069 10.259 4.52582 10.3478C4.4661 10.443 4.49677 10.5689 4.592 10.6286L6.90641 12.0602L6.78859 17.5702L3.90283 16.271C3.77694 16.2145 3.62523 16.2581 3.54938 16.3791C3.46868 16.5098 3.50903 16.6825 3.63976 16.7649L6.76438 18.6984L6.60621 26.0725C6.60621 26.3146 6.94676 26.5099 7.36639 26.5099C7.78602 26.5099 8.12656 26.3146 8.12656 26.0725L7.96033 18.7258L11.1285 16.7665C11.2463 16.6874 11.2948 16.5373 11.2367 16.4082Z" fill="#357C79"/>
<defs>
<linearGradient id="paint0_linear_648_1303" x1="7.45463" y1="-0.788417" x2="7.45463" y2="19.742" gradientUnits="userSpaceOnUse">
<stop offset="0.00992662" stop-color="#6DCE59"/>
<stop offset="0.9878" stop-color="#42C14B"/>
</linearGradient>
</defs>
</svg>
