<svg width="19" height="18" viewBox="0 0 19 18" fill="none" xmlns="http://www.w3.org/2000/svg">
<g opacity="0.5">
<path d="M12.9 12.3684V13C12.9 14.8856 12.9 15.8284 12.3142 16.4142C11.7284 17 10.7856 17 8.9 17H6.73771L4.99992 16.9999C3.11443 16.9999 2.17168 16.9999 1.58592 16.4141C1.00016 15.8283 1.00013 14.8856 1.00005 13.0001L1 11.6667L1 7.17543L1 5C1 3.11438 1 2.17157 1.58579 1.58579C2.17157 1 3.11438 1 5 1H8.9C10.7856 1 11.7284 1 12.3142 1.58579C12.9 2.17157 12.9 3.11438 12.9 5V6.05263" stroke="black"/>
<path d="M18.3535 9.7746C18.5488 9.57934 18.5488 9.26276 18.3535 9.0675L15.1716 5.88552C14.9763 5.69025 14.6597 5.69025 14.4645 5.88552C14.2692 6.08078 14.2692 6.39736 14.4645 6.59262L17.2929 9.42105L14.4645 12.2495C14.2692 12.4447 14.2692 12.7613 14.4645 12.9566C14.6597 13.1518 14.9763 13.1518 15.1716 12.9566L18.3535 9.7746ZM8.64999 9.92105H18V8.92105H8.64999V9.92105Z" fill="black"/>
</g>
</svg>
