<svg width="215" height="140" viewBox="0 0 215 140" fill="none" xmlns="http://www.w3.org/2000/svg">
<g clip-path="url(#clip0_1_993)">
<path opacity="0.5" d="M190.741 102.755H160.146V66.9327C160.146 65.8493 159.27 64.9733 158.186 64.9733H129.551C128.467 64.9733 127.591 65.8493 127.591 66.9327V81.4522H113.928V49.2494C113.928 48.166 113.052 47.29 111.968 47.29H92.0201V29.1543C92.0201 28.0709 91.1441 27.1949 90.0607 27.1949H83.1021V23.0485C83.1021 21.9651 82.2261 21.0892 81.1427 21.0892H55.8236C54.7401 21.0892 53.8642 21.9651 53.8642 23.0485V27.192H47.0064C45.923 27.192 45.047 28.068 45.047 29.1514V58.542H19.3562C18.2728 58.542 17.3968 59.4179 17.3968 60.5014V125.057H192.7V104.711C192.7 103.631 191.824 102.755 190.741 102.755ZM30.5477 98.0493H25.4475V91.4191H30.5477V98.0493ZM30.5477 86.3939H25.4475V79.7637H30.5477V86.3939ZM30.5477 74.7385H25.4475V68.1083H30.5477V74.7385ZM39.7798 98.0493H34.6796V91.4191H39.7798V98.0493ZM39.7798 86.3939H34.6796V79.7637H39.7798V86.3939ZM39.7798 74.7385H34.6796V68.1083H39.7798V74.7385ZM70.369 74.6434H63.736V68.0132H70.3661V74.6434H70.369ZM70.369 63.717H63.736V57.0869H70.3661V63.717H70.369ZM70.369 52.7907H63.736V46.1605H70.3661V52.7907H70.369ZM70.369 41.8643H63.736V35.2341H70.3661V41.8643H70.369ZM83.2807 74.6434H76.6505V68.0132H83.2807V74.6434ZM83.2807 63.717H76.6505V57.0869H83.2807V63.717ZM83.2807 52.7907H76.6505V46.1605H83.2807V52.7907ZM83.2807 41.8643H76.6505V35.2341H83.2807V41.8643ZM108.753 72.7359H103.652V66.1057H108.753V72.7359ZM108.753 61.0805H103.652V54.4504H108.753V61.0805ZM143.033 94.5138H138.1V84.9647H143.033V94.5138ZM143.033 83.2387H138.1V73.6897H143.033V83.2387ZM152.51 94.5138H147.577V84.9647H152.51V94.5138ZM152.51 83.2387H147.577V73.6897H152.51V83.2387Z" fill="url(#paint0_linear_1_993)"/>
<path d="M174.134 93.0649C167.184 93.0649 154.727 86.2099 153.088 77.8596C151.448 69.5092 157.465 65.9016 157.528 61.64C157.626 55.2691 152.895 51.4541 153.667 45.4204C154.439 39.3867 160.885 32.7018 162.26 27.1003C163.634 21.5017 164.666 5.58465 174.068 4.87006C186.956 3.89037 185.648 27.8956 187.097 33.7622C188.547 39.6287 192.673 41.2769 193.252 48.953C193.831 56.6292 190.509 58.0526 189.302 63.9163C188.094 69.78 193.572 73.3271 192.091 80.1762C190.933 85.5328 181.087 93.0649 174.134 93.0649Z" fill="url(#paint1_linear_1_993)"/>
<path d="M183.089 70.0019C182.922 69.7369 182.57 69.6591 182.305 69.8262L175.271 74.2953V44.7376L181.328 37.6032C181.53 37.364 181.501 37.0067 181.262 36.8021C181.023 36.6004 180.666 36.6292 180.464 36.8684L175.271 42.9828V24.8528C175.271 24.2276 174.764 23.7175 174.136 23.7175C173.508 23.7175 173.001 24.2247 173.001 24.8528V57.8193L164.639 51.2467C164.391 51.0537 164.037 51.0969 163.844 51.3418C163.651 51.5896 163.694 51.944 163.939 52.1371L173.004 59.26V81.9801L162.683 74.8456C162.426 74.667 162.072 74.7304 161.893 74.9897C161.714 75.2461 161.781 75.6006 162.037 75.7792L173.004 83.3574V121.237H175.271V75.6409L182.913 70.7857C183.178 70.6157 183.256 70.2642 183.089 70.0019Z" fill="url(#paint2_linear_1_993)"/>
<path d="M167.429 98.9344H188.604C189.146 98.9344 189.584 98.4964 189.584 97.9547V93.5836C189.584 93.0418 189.146 92.6039 188.604 92.6039H167.429C166.887 92.6039 166.449 93.0418 166.449 93.5836V97.9547C166.449 98.4964 166.887 98.9344 167.429 98.9344Z" fill="#E1E1E1"/>
<path d="M18.3106 113.361C18.3106 113.361 -0.450377 104.823 0.0048884 97.3921C0.45151 90.0733 5.18282 90.6755 7.92306 86.9844C9.12461 85.3679 7.4822 79.8356 8.23137 74.8651C9.32055 67.6241 13.0952 60.6078 18.3106 60.6078C22.7106 60.6078 26.1395 65.4111 27.0529 70.3903C28.0498 75.8189 26.4074 81.4895 28.5944 82.2185C33.83 83.9647 36.0573 90.4767 34.8443 94.5683C31.3692 106.316 18.3106 113.361 18.3106 113.361Z" fill="url(#paint3_linear_1_993)"/>
<path d="M26.9822 93.5196C26.8064 93.315 26.4952 93.2919 26.2906 93.4677L19.1447 99.6311V75.623C19.1447 75.1332 18.747 74.7384 18.2601 74.7384C17.7731 74.7384 17.3755 75.136 17.3755 75.623V86.1978L13.7622 82.6796C13.5691 82.4894 13.2579 82.4952 13.0706 82.6883C12.8833 82.8813 12.8862 83.1925 13.0793 83.3798L17.3755 87.5608V105.91L8.55254 98.2999C8.34796 98.1241 8.03965 98.1443 7.861 98.3517C7.68523 98.5563 7.70828 98.8646 7.91286 99.0433L17.3784 107.206V121.34H19.1504V100.922L26.9361 94.2082C27.1349 94.0325 27.1579 93.7241 26.9822 93.5196Z" fill="url(#paint4_linear_1_993)"/>
<path opacity="0.5" d="M211.44 140H5.32838C3.42952 140 1.89084 138.461 1.89084 136.562V131.675C1.89084 129.776 3.42952 128.238 5.32838 128.238H211.44C213.339 128.238 214.877 129.776 214.877 131.675V136.562C214.877 138.461 213.339 140 211.44 140Z" fill="url(#paint5_linear_1_993)"/>
<path d="M206.817 135.102H9.95475C7.94351 135.102 6.31262 133.471 6.31262 131.46V124.976C6.31262 122.965 7.94351 121.334 9.95475 121.334H206.817C208.828 121.334 210.459 122.965 210.459 124.976V131.46C210.459 133.471 208.828 135.102 206.817 135.102Z" fill="url(#paint6_linear_1_993)"/>
<path opacity="0.5" d="M6.3119 131.46C6.3119 133.471 7.94279 135.102 9.95403 135.102H12.1266L205.272 121.334H9.95403C8.94841 121.334 8.03788 121.741 7.37803 122.4C7.29447 122.484 7.21667 122.57 7.14175 122.66C6.6231 123.288 6.30902 124.098 6.30902 124.976V131.46H6.3119Z" fill="url(#paint7_linear_1_993)"/>
<path d="M177.804 116.297L204.128 113.064L208.45 104.671L191.744 92.2259L177.077 97.0609L172.084 110.774L177.804 116.297Z" fill="#2A3444"/>
<path d="M64.4519 115.335L89.9756 116.442L94.9172 109.883L87.4255 97.1188L76.1303 93.8512L65.1319 99.9137L61.0287 105.561L64.4519 115.335Z" fill="#2A3444"/>
<path d="M77.4828 122.357C84.2414 122.357 89.7203 116.878 89.7203 110.12C89.7203 103.361 84.2414 97.8822 77.4828 97.8822C70.7243 97.8822 65.2454 103.361 65.2454 110.12C65.2454 116.878 70.7243 122.357 77.4828 122.357Z" fill="url(#paint8_linear_1_993)"/>
<path d="M77.4795 119.049C82.4112 119.049 86.4091 115.051 86.4091 110.119C86.4091 105.188 82.4112 101.19 77.4795 101.19C72.5479 101.19 68.55 105.188 68.55 110.119C68.55 115.051 72.5479 119.049 77.4795 119.049Z" fill="url(#paint9_linear_1_993)"/>
<path d="M77.4763 117.384C81.4881 117.384 84.7404 114.132 84.7404 110.12C84.7404 106.108 81.4881 102.856 77.4763 102.856C73.4644 102.856 70.2122 106.108 70.2122 110.12C70.2122 114.132 73.4644 117.384 77.4763 117.384Z" fill="url(#paint10_linear_1_993)"/>
<path d="M77.4763 111.944C78.4837 111.944 79.3003 111.128 79.3003 110.12C79.3003 109.113 78.4837 108.296 77.4763 108.296C76.469 108.296 75.6524 109.113 75.6524 110.12C75.6524 111.128 76.469 111.944 77.4763 111.944Z" fill="url(#paint11_linear_1_993)"/>
<path d="M190.344 122.357C197.103 122.357 202.582 116.878 202.582 110.12C202.582 103.361 197.103 97.8822 190.344 97.8822C183.586 97.8822 178.107 103.361 178.107 110.12C178.107 116.878 183.586 122.357 190.344 122.357Z" fill="url(#paint12_linear_1_993)"/>
<path d="M190.343 119.049C195.274 119.049 199.272 115.051 199.272 110.12C199.272 105.188 195.274 101.19 190.343 101.19C185.411 101.19 181.413 105.188 181.413 110.12C181.413 115.051 185.411 119.049 190.343 119.049Z" fill="url(#paint13_linear_1_993)"/>
<path d="M190.345 117.384C194.357 117.384 197.609 114.132 197.609 110.12C197.609 106.108 194.357 102.856 190.345 102.856C186.333 102.856 183.081 106.108 183.081 110.12C183.081 114.132 186.333 117.384 190.345 117.384Z" fill="url(#paint14_linear_1_993)"/>
<path d="M190.345 111.944C191.352 111.944 192.169 111.128 192.169 110.12C192.169 109.113 191.352 108.296 190.345 108.296C189.337 108.296 188.521 109.113 188.521 110.12C188.521 111.128 189.337 111.944 190.345 111.944Z" fill="url(#paint15_linear_1_993)"/>
<path d="M213.64 96.3605L212.531 95.2915C212.055 89.9839 211.162 84.5697 209.491 82.3568C209.491 82.3568 197.853 68.2839 187.125 64.7167C177.68 61.5759 142.187 58.3545 126.2 62.9676C111.416 67.235 89.4275 79.4004 89.4275 79.4004C89.4275 79.4004 66.4337 83.492 57.0662 88.3617C50.6953 91.6753 48.3787 98.634 48.3787 98.634L47.1224 99.2909C46.4078 99.6655 45.941 100.397 45.9295 101.204C45.8978 103.161 46.8371 108.183 46.8371 108.183L47.3356 109.877C48.0271 111.776 50.1392 114.266 52.1562 114.41L64.4542 115.332C63.6589 113.436 63.2641 111.332 63.3794 109.122C63.7482 102.031 69.4909 96.228 76.5792 95.79C84.7827 95.2829 91.5915 101.786 91.5915 109.877C91.5915 112.246 91.0065 114.476 89.975 116.435L177.807 116.291C176.695 114.116 176.127 111.618 176.291 108.973C176.732 101.936 182.446 96.2251 189.479 95.7871C197.683 95.28 204.495 101.78 204.495 109.874C204.495 110.969 204.365 112.033 204.131 113.056L209.229 111.059C212.508 109.794 215.009 106.69 214.896 103.057C214.853 101.726 214.79 100.219 214.695 98.634C214.64 97.7753 214.263 96.9599 213.64 96.3605Z" fill="url(#paint16_linear_1_993)"/>
<path d="M94.4772 95.5394L88.6135 99.0231C92.3968 104.123 93.584 110.016 93.0452 116.436L174.731 116.303C173.823 109.546 176.01 103.351 180.093 97.4959L172.702 92.9116C170.593 91.6034 168.135 90.9608 165.654 91.0732L99.5428 94.0238C97.7534 94.1045 96.013 94.626 94.4772 95.5394Z" fill="url(#paint17_linear_1_993)"/>
<path opacity="0.3" d="M189.123 79.2105L188.956 78.6457L188.624 78.7437L188.789 79.2969C189.016 80.3371 188.443 81.5617 187.99 82.3916C183.21 91.1799 171.18 104.708 166.227 110.12C164.93 111.537 163.083 112.347 161.162 112.347H136.577C138.77 97.5911 142.213 81.311 147.106 62.576L146.772 62.4895C141.87 81.2563 138.421 97.5652 136.228 112.347H112.238V112.344H96.2083C94.2345 100.179 93.8023 90.353 94.8915 82.3109L94.5486 82.2648C93.4566 90.327 93.8859 100.17 95.8597 112.344H93.8196V112.693H112.241V112.69H161.167C163.187 112.69 165.123 111.837 166.486 110.35C171.445 104.933 183.498 91.3788 188.296 82.5558C188.771 81.677 189.379 80.3775 189.123 79.2105Z" fill="#8E3725"/>
<path d="M207.095 111.903C207.176 111.24 207.228 110.566 207.228 109.883C207.228 100.562 199.67 93.0039 190.349 93.0039C181.027 93.0039 173.469 100.562 173.469 109.883C173.469 112.157 173.921 114.324 174.737 116.303L177.814 116.297C177.682 116.041 177.561 115.779 177.445 115.511C177.408 115.424 177.373 115.335 177.339 115.246C177.264 115.064 177.192 114.883 177.123 114.698C177.085 114.592 177.051 114.485 177.013 114.375C176.956 114.205 176.901 114.033 176.849 113.86C176.814 113.744 176.783 113.629 176.754 113.511C176.708 113.341 176.665 113.171 176.627 112.998C176.601 112.877 176.575 112.759 176.549 112.638C176.515 112.462 176.483 112.286 176.454 112.111C176.434 111.99 176.417 111.872 176.4 111.75C176.374 111.566 176.356 111.379 176.339 111.189C176.327 111.073 176.316 110.961 176.307 110.846C176.293 110.63 176.287 110.414 176.281 110.197C176.278 110.108 176.273 110.019 176.273 109.927C176.273 109.912 176.273 109.898 176.273 109.883C176.273 109.604 176.284 109.327 176.299 109.053C176.302 109.028 176.299 109.005 176.302 108.981C176.307 108.869 176.322 108.76 176.33 108.647C176.339 108.561 176.345 108.474 176.353 108.391C176.368 108.25 176.388 108.108 176.408 107.967C176.42 107.878 176.431 107.789 176.443 107.699C176.457 107.613 176.474 107.529 176.489 107.446C177.494 101.68 181.995 97.1186 187.726 96.0237C187.891 95.992 188.055 95.9603 188.219 95.9343C188.274 95.9257 188.329 95.9199 188.383 95.9113C188.556 95.8853 188.732 95.8623 188.905 95.845C188.977 95.8364 189.046 95.8335 189.118 95.8277C189.242 95.8162 189.366 95.8047 189.49 95.796C189.519 95.7931 189.55 95.7932 189.579 95.7932C189.715 95.7845 189.853 95.7816 189.988 95.7787C190.098 95.7759 190.21 95.7701 190.32 95.7701C190.343 95.7701 190.366 95.7672 190.389 95.7672C190.507 95.7672 190.622 95.773 190.738 95.7759C190.847 95.7787 190.954 95.7787 191.063 95.7845C191.204 95.7903 191.345 95.8018 191.487 95.8133C191.59 95.822 191.694 95.8277 191.795 95.8364C191.942 95.8508 192.089 95.8709 192.233 95.8911C192.328 95.9026 192.42 95.9142 192.515 95.9257C192.68 95.9516 192.844 95.9804 193.005 96.0121C193.077 96.0265 193.152 96.0352 193.224 96.0525C193.458 96.1015 193.691 96.1533 193.921 96.2138C193.953 96.2225 193.985 96.234 194.019 96.2427C194.215 96.2945 194.411 96.3493 194.604 96.4098C194.685 96.4357 194.766 96.4645 194.844 96.4905C194.988 96.5394 195.132 96.5855 195.27 96.6374C195.359 96.672 195.449 96.7094 195.538 96.744C195.668 96.793 195.794 96.8449 195.921 96.8967C196.013 96.9371 196.106 96.9803 196.198 97.0235C196.319 97.0783 196.44 97.1301 196.558 97.1878C196.65 97.2339 196.742 97.2828 196.835 97.3289C196.95 97.3866 197.065 97.4471 197.178 97.5076C197.27 97.5595 197.359 97.6113 197.451 97.6661C197.561 97.7295 197.67 97.7929 197.777 97.8591C197.869 97.9139 197.955 97.9744 198.045 98.032C198.149 98.1012 198.255 98.1674 198.356 98.2366C198.445 98.2971 198.532 98.3605 198.618 98.4239C198.719 98.4959 198.82 98.568 198.918 98.6429C199.004 98.7092 199.088 98.7754 199.171 98.8417C199.267 98.9195 199.365 98.9944 199.457 99.0751C199.54 99.1442 199.621 99.2163 199.702 99.2883C199.794 99.369 199.886 99.4497 199.975 99.5332C200.056 99.6082 200.134 99.6831 200.212 99.758C200.298 99.8416 200.387 99.928 200.471 100.014C200.546 100.092 200.621 100.17 200.696 100.251C200.779 100.34 200.863 100.429 200.944 100.522C201.016 100.602 201.088 100.686 201.157 100.766C201.235 100.859 201.312 100.954 201.39 101.049C201.459 101.132 201.526 101.219 201.592 101.305C201.667 101.403 201.739 101.501 201.811 101.599C201.874 101.689 201.938 101.775 202.001 101.864C202.07 101.965 202.139 102.066 202.206 102.17C202.266 102.262 202.324 102.351 202.381 102.446C202.445 102.55 202.508 102.657 202.572 102.76C202.626 102.856 202.681 102.948 202.736 103.043C202.796 103.149 202.854 103.259 202.912 103.368C202.961 103.464 203.012 103.561 203.061 103.659C203.116 103.772 203.168 103.884 203.22 103.997C203.266 104.095 203.312 104.195 203.355 104.293C203.404 104.409 203.45 104.524 203.499 104.642C203.54 104.743 203.58 104.844 203.617 104.945C203.661 105.063 203.704 105.184 203.744 105.305C203.779 105.406 203.816 105.509 203.848 105.61C203.888 105.734 203.923 105.858 203.958 105.982C203.986 106.086 204.018 106.189 204.047 106.293C204.081 106.42 204.11 106.55 204.139 106.679C204.162 106.783 204.188 106.884 204.211 106.99C204.24 107.123 204.263 107.261 204.286 107.397C204.303 107.498 204.323 107.598 204.341 107.699C204.364 107.843 204.381 107.987 204.398 108.134C204.41 108.229 204.424 108.324 204.436 108.42C204.453 108.581 204.462 108.742 204.473 108.907C204.479 108.987 204.488 109.068 204.491 109.151C204.502 109.396 204.511 109.644 204.511 109.892C204.511 110.987 204.381 112.05 204.148 113.073L207.095 111.903Z" fill="url(#paint18_linear_1_993)"/>
<path d="M77.4836 93.0039C68.1622 93.0039 60.6042 100.562 60.6042 109.883C60.6042 111.707 60.8981 113.465 61.434 115.11L64.4509 115.338C63.7478 113.661 63.3588 111.817 63.3588 109.883C63.3588 102.086 69.6778 95.7672 77.4749 95.7672C85.2721 95.7672 91.5911 102.086 91.5911 109.883C91.5911 112.252 91.0061 114.482 89.9746 116.441L93.0462 116.436C93.8962 114.422 94.3659 112.209 94.3659 109.883C94.3659 100.559 86.8079 93.0039 77.4836 93.0039Z" fill="url(#paint19_linear_1_993)"/>
<path d="M91.3587 82.2876L188.673 79.121C188.673 79.121 183.322 66.8288 178.957 65.5379C171.494 63.3307 142.36 60.2706 127.126 64.6504C111.163 69.2405 91.3587 82.2876 91.3587 82.2876Z" fill="url(#paint20_linear_1_993)"/>
<path d="M145.271 80.8499H140.061L144.902 62.5327H148.95L145.271 80.8499Z" fill="#2A384C"/>
<path d="M181.146 79.3662L178.014 79.467L177.25 65.3624L179.63 66.0943L181.146 79.3662Z" fill="#2A384C"/>
<path d="M202.489 75.0292C201.869 74.4558 201.229 73.8738 200.572 73.2889C197.406 70.5025 193.697 67.6989 189.963 65.8922C189.439 66.1487 189.375 66.8748 189.856 67.2148L202.878 78.291C203.526 78.7463 204.292 78.9999 205.082 79.0258L206.514 79.046C205.41 77.8761 204.042 76.4844 202.489 75.0292Z" fill="url(#paint21_linear_1_993)"/>
<path d="M48.3786 98.6373C48.3786 98.6373 55.4814 98.6373 60.423 98.6373C62.7887 98.6373 65.2638 92.8917 62.9039 92.1108C61.0713 91.5029 53.8822 91.9898 51.3004 94.1221C48.7186 96.2543 48.3786 98.6373 48.3786 98.6373Z" fill="url(#paint22_linear_1_993)"/>
<path d="M48.3786 97.5969C48.3786 98.0378 48.3786 98.64 48.3786 98.64H58.0314C59.9937 98.64 60.9849 92.9117 59.0284 92.2634C57.507 91.7591 52.7094 92.6581 50.5656 94.4273C48.4219 96.1937 48.3786 97.1532 48.3786 97.5969Z" fill="url(#paint23_linear_1_993)"/>
<path opacity="0.5" d="M59.0276 92.2602C57.7511 91.8367 54.1637 92.4072 51.7779 93.6462C50.464 94.9428 50.4294 95.6891 50.4294 96.0637C50.4294 96.64 50.8962 97.1068 51.4725 97.1068H59.6068C60.3271 95.3607 60.3271 92.6924 59.0276 92.2602Z" fill="url(#paint24_linear_1_993)"/>
<path d="M58.3724 110.2L57.3754 109.033C56.9173 108.497 56.2459 108.189 55.5399 108.189H54.2347H49.1605H46.8351L47.3336 109.883H48.8521C49.3967 109.883 49.9125 110.134 50.2525 110.561L52.2119 113.041C52.5663 113.491 53.0936 113.773 53.6641 113.819L57.3293 114.125C58.211 114.197 58.966 113.503 58.966 112.618V111.802C58.9631 111.218 58.7527 110.647 58.3724 110.2Z" fill="url(#paint25_linear_1_993)"/>
<path opacity="0.4" d="M88.6416 79.5447C86.8724 80.4811 85.3251 81.3484 83.8469 82.2302C82.6309 82.9592 81.3055 83.4692 79.9051 83.7487C70.333 85.6677 61.6513 88.2178 52.6554 91.736C52.5344 91.8628 52.4192 91.9924 52.3039 92.1192C61.4438 88.5146 70.2379 85.9213 79.9512 83.9734C81.3746 83.6882 82.726 83.1666 83.965 82.4261C85.619 81.4378 87.3622 80.4667 89.4081 79.3977C89.3447 79.415 89.0796 79.464 88.6416 79.5447Z" fill="#8E3725"/>
<path d="M91.7206 82.7405C91.4699 82.7405 91.2538 82.582 91.1789 82.3428C91.1011 82.0979 91.1962 81.8386 91.4094 81.7003C93.4754 80.3633 112.023 68.5091 126.995 64.2042C141.964 59.9022 171.242 62.7721 179.088 65.0917C183.071 66.2702 187.6 75.6349 188.894 78.4759C189.003 78.718 188.986 78.9975 188.845 79.2251C188.704 79.4527 188.459 79.5939 188.191 79.6026L91.7379 82.7405C91.7321 82.7405 91.7264 82.7405 91.7206 82.7405ZM148.073 62.9018C140.382 62.9018 132.816 63.4983 127.252 65.1003C113.922 68.9326 97.6909 78.8275 93.0345 81.7694L187.963 78.6805C186.894 76.3581 182.416 67.0482 178.823 65.9878C173.971 64.55 160.852 62.9018 148.073 62.9018Z" fill="#2A384C"/>
<path d="M209.639 82.5674H202.122C201.073 82.5674 200.402 83.8641 200.039 84.8783C199.808 85.5267 200.128 86.2413 200.759 86.515L209.245 90.2003C210.645 90.8083 212.213 89.7652 212.178 88.2381C212.152 87.0798 212.048 85.8494 211.78 85.0109C211.126 82.9593 209.639 82.5674 209.639 82.5674Z" fill="url(#paint26_linear_1_993)"/>
<path opacity="0.5" d="M210.223 86.1807C210.197 85.0224 210.093 83.792 209.825 82.9535C209.785 82.8239 209.739 82.7029 209.693 82.5847C209.661 82.5732 209.638 82.5674 209.638 82.5674H202.12C201.072 82.5674 200.4 83.8641 200.04 84.8783C200.029 84.9129 200.023 84.9475 200.014 84.9821L207.29 88.143C208.69 88.751 210.26 87.7079 210.223 86.1807Z" fill="#A02444"/>
<path d="M206.522 79.046L205.09 79.0258C204.297 78.9999 203.534 78.7434 202.885 78.291L189.864 67.2148C189.38 66.8748 189.446 66.1487 189.971 65.8923C189.659 65.7395 189.345 65.5955 189.034 65.46C188.801 65.7251 188.651 66.0565 188.614 66.4167C188.553 67.0275 188.83 67.6269 189.331 67.9784L202.352 79.0546C203.15 79.6136 204.087 79.9248 205.061 79.9594L205.862 79.9853L207.421 80.0141C207.141 79.7087 206.844 79.386 206.522 79.046Z" fill="#2A384C"/>
<path d="M91.9559 82.0833L98.1568 78.1011L99.7012 81.8989L91.9559 82.0833Z" fill="#2A384C"/>
<path d="M96.1775 80.625C95.6041 80.3512 95.46 79.6021 95.8894 79.1353C96.6155 78.3429 97.7076 77.2566 98.7045 76.6688C100.39 75.6718 103.548 75.0753 105.467 75.6199C107.386 76.1616 107.795 79.1122 106.093 80.0919C104.39 81.0716 99.2376 80.7604 99.2376 80.7604L97.941 80.916C97.3387 80.988 96.725 80.8872 96.1775 80.625Z" fill="url(#paint27_linear_1_993)"/>
<path d="M127.295 84.3274L135.625 84.0508C136.06 84.0364 136.386 84.4427 136.279 84.8633L135.861 86.5317C135.677 87.2636 135.028 87.7851 134.273 87.8053L128.372 87.9638C127.747 87.9811 127.194 87.5546 127.053 86.9437L126.641 85.1745C126.543 84.7539 126.857 84.3418 127.295 84.3274Z" fill="#E17347"/>
<path d="M127.622 84.6415L135.272 84.3736C135.514 84.3649 135.69 84.6012 135.612 84.8317L135.442 85.3331C135.281 85.8085 134.84 86.1341 134.335 86.1485C132.771 86.1889 129.437 86.2782 128.161 86.3099C127.858 86.3185 127.587 86.1226 127.501 85.8316L127.285 85.1227C127.21 84.8864 127.377 84.6473 127.622 84.6415Z" fill="#FAC478"/>
<path d="M173.843 82.731L182.173 82.4544C182.608 82.4399 182.934 82.8462 182.827 83.2669L182.409 84.9353C182.225 85.6671 181.577 86.1887 180.822 86.2089L174.921 86.3673C174.295 86.3846 173.742 85.9582 173.601 85.3473L173.189 83.5781C173.088 83.1574 173.405 82.7483 173.843 82.731Z" fill="#E17347"/>
<path d="M174.165 83.0451L181.816 82.7771C182.058 82.7685 182.233 83.0047 182.156 83.2353L181.986 83.7366C181.824 84.2121 181.383 84.5377 180.879 84.5521C179.315 84.5924 175.981 84.6817 174.704 84.7134C174.402 84.7221 174.131 84.5261 174.044 84.2351L173.828 83.5263C173.753 83.29 173.923 83.0537 174.165 83.0451Z" fill="#FAC478"/>
<path d="M50.421 20.5585C53.0517 22.1749 60.1141 28.2922 60.1141 28.2922L62.1974 26.2291L66.24 29.9174L63.2433 34.6775C61.9957 36.6599 59.4283 37.3486 57.3566 36.2536L50.5737 32.672L44.0011 18.821C44.0011 18.8181 47.5655 18.8008 50.421 20.5585Z" fill="url(#paint28_linear_1_993)"/>
<path d="M52.7357 33.8104L57.3575 36.2509L52.341 31.3727L52.7357 33.8104Z" fill="#3A6BDB"/>
<path d="M59.2084 28.3938C57.0214 30.722 63.0436 36.2457 65.1902 32.6007L66.9422 29.578C68.4693 27.0395 63.4556 24.0687 61.9458 25.5469L59.2084 28.3938Z" fill="#65A2FC"/>
<path d="M66.5764 29.1285C67.1261 28.3792 66.6293 27.0804 65.4668 26.2276C64.3043 25.3748 62.9163 25.2909 62.3666 26.0402C61.8168 26.7896 62.3136 28.0884 63.4761 28.9412C64.6386 29.794 66.0267 29.8779 66.5764 29.1285Z" fill="#3658A3"/>
<path d="M66.324 28.1169L68.8856 23.6507L66.3701 22.1725L62.5695 26.0192C61.61 27.192 64.7306 30.7303 66.324 28.1169Z" fill="url(#paint29_linear_1_993)"/>
<path d="M39.8471 122.04C39.8471 122.04 39.0172 126.494 40.4983 126.901C41.9794 127.307 44.4689 127.076 45.5177 127.076C46.5666 127.076 50.2779 127.272 51.7359 127.108C53.603 126.901 54.309 125.178 53.6059 123.964L39.8471 122.04Z" fill="url(#paint30_linear_1_993)"/>
<path d="M33.792 128.33C33.4146 132.459 41.7678 132.364 40.7997 128.036L33.792 128.33Z" fill="url(#paint31_linear_1_993)"/>
<path d="M39.8471 121.06C39.8471 121.06 39.0172 125.515 40.4983 125.921C41.9794 126.327 44.4689 126.097 45.5177 126.097C46.5666 126.097 50.2779 126.293 51.7359 126.128C53.603 125.921 54.1822 124.152 53.2371 123.515C52.6695 123.135 48.5894 121.962 48.5894 121.962L45.561 120.538L39.8471 121.06Z" fill="#1F2A3A"/>
<path d="M56.4683 63.6359C55.2062 83.0452 46.268 120.913 46.268 120.913C44.0752 121.495 41.577 123.938 39.4822 123.227L45.9856 63.27L56.4683 63.6359Z" fill="url(#paint32_linear_1_993)"/>
<path d="M34.2797 122.458L33.8014 128.128C33.5103 131.067 41.9731 131.131 40.6851 127.578L39.3827 123.57L34.2797 122.458Z" fill="#1F2A3A"/>
<path d="M32.0598 63.2702L33.4199 123.005C33.4314 125.564 40.2979 124.976 40.4419 123.734L46.3546 69.8053L56.4713 63.6361L56.5923 60.7173L46.5967 52.583L32.0598 63.2702Z" fill="url(#paint33_linear_1_993)"/>
<path d="M57.0691 60.0488L51.2515 24.7599C50.825 21.4203 48.2432 19.2708 44.8979 18.8875C37.4782 18.0404 27.3039 23.4748 25.5981 26.6933L31.0238 45.4342L31.142 63.0195C31.3091 66.5089 40.1435 67.3013 47.4653 66.0594L47.7851 55.4241L51.3552 65.1518C54.9858 64.0251 57.5157 62.2848 57.0691 60.0488Z" fill="url(#paint34_linear_1_993)"/>
<path d="M31.1309 62.0428L35.7642 58.5966L31.1136 54.4647L31.0848 55.2455L31.1309 62.0428Z" fill="#3658A3"/>
<path d="M29.8773 38.6197L31.0212 45.4343L29.2895 39.4524L29.8773 38.6197Z" fill="#3A6BDB"/>
<path d="M36.8882 26.2035L41.2478 24.7167L45.446 23.6073L43.1409 22.3164L41.023 24.4141L38.5825 23.8436L36.8882 26.2035Z" fill="#3A6BDB"/>
<path d="M40.9915 17.8643L40.444 19.6508L41.2508 24.7134L42.899 22.0078C42.6771 20.2818 42.0979 18.6884 40.9915 17.8643Z" fill="#3A6BDB"/>
<path d="M35.6265 20.2848C36.3583 21.9992 38.5511 23.4111 41.2568 24.7193C41.6458 23.2757 41.617 21.2933 41.3375 20.0716L35.6265 20.2848Z" fill="#E1E1E1"/>
<path d="M40.9909 17.8643C40.9909 17.8643 42.3307 18.7691 43.0252 19.3655C44.1518 20.3308 45.4484 23.6041 45.4484 23.6041L44.0654 23.071C43.7081 22.9327 43.3018 22.999 43.0079 23.2468L41.2531 24.7134C43.3421 22.0683 42.1089 19.1494 40.9909 17.8643Z" fill="#65A2FC"/>
<path d="M35.6211 20.2846C35.6211 20.2846 36.5979 22.7857 39.9922 22.0855C41.8248 21.708 41.3004 19.933 41.3004 19.933L40.7155 15.9653L35.2523 15.5648L35.6211 20.2846Z" fill="url(#paint35_linear_1_993)"/>
<path d="M41.2618 8.01266L43.2125 8.58319C43.4229 10.1017 42.06 13.4614 42.06 13.4614L39.9594 8.29216L41.2618 8.01266Z" fill="url(#paint36_linear_1_993)"/>
<path d="M40.8558 18.9213C42.5703 18.541 42.9218 15.7546 42.7518 13.6051C42.5818 11.4527 41.824 9.3982 41.824 9.3982C41.095 6.86543 38.5565 5.37285 36.1476 6.06439C33.7416 6.75593 32.3787 9.36939 33.1077 11.9022L34.5196 15.9707C35.4791 18.4056 38.7178 19.3939 40.8558 18.9213Z" fill="url(#paint37_linear_1_993)"/>
<path d="M36.5306 10.3262C38.3287 11.1445 40.2362 11.5479 42.3482 11.1935C42.1494 10.3665 41.9391 9.73258 41.8584 9.49631L36.5306 10.3262Z" fill="#EE8078"/>
<path d="M35.4419 17.841C35.4419 17.841 31.6269 13.8617 31.3128 12.8359C31.042 11.9542 30.3389 8.62327 32.3242 6.67254C35.0385 4.00433 40.1415 4.04756 42.3573 6.51406C43.654 7.95766 43.1699 9.62888 43.1699 9.62888C41.1846 10.8189 36.5311 10.3233 36.5311 10.3233C37.1621 11.1071 37.2774 12.1674 36.2141 12.323C36.2141 12.323 36.727 13.9165 36.4245 14.5734C36.1219 15.2333 34.8714 15.5589 34.8714 15.5589C35.2171 16.334 35.4246 17.0947 35.4419 17.841Z" fill="url(#paint38_linear_1_993)"/>
<path d="M34.9975 12.9625C34.1331 12.5159 32.894 13.3112 33.3868 14.4839C34.3319 16.7372 36.1443 15.9506 36.1443 15.9506C36.1443 15.9506 35.859 13.4091 34.9975 12.9625Z" fill="url(#paint39_linear_1_993)"/>
<path d="M35.4768 18.426L34.1513 20.8752C34.1571 22.5695 34.8746 24.2897 36.8945 26.2059L38.4159 24.6095C38.6262 24.3877 38.9374 24.2868 39.2371 24.3445L41.2512 24.7219C37.7474 22.5061 36.056 21.074 35.4768 18.426Z" fill="#65A2FC"/>
<path d="M25.5977 26.6935L16.55 43.4807C14.9479 46.4745 15.7317 49.4827 19.0078 50.9292L22.5261 52.5832L25.5977 46.6445L24.7102 45.9386L29.9486 38.5218C32.2163 33.1854 26.8569 25.5323 25.5977 26.6935Z" fill="url(#paint40_linear_1_993)"/>
<path d="M24.7339 45.8983C22.1147 44.0715 17.5217 50.8284 21.4376 52.4276L24.6821 53.7243C27.4165 54.8653 29.6295 49.4742 27.9467 48.1948L24.7339 45.8983Z" fill="#65A2FC"/>
<path d="M27.7856 51.777C28.4611 50.5032 28.3431 49.1176 27.522 48.6822C26.7009 48.2468 25.4877 48.9265 24.8122 50.2003C24.1367 51.4741 24.2548 52.8597 25.0759 53.2951C25.8969 53.7305 27.1102 53.0508 27.7856 51.777Z" fill="#3658A3"/>
<path d="M36.3089 54.9341L35.3091 53.4127C35.0008 52.943 34.5224 52.6087 33.9721 52.4848L32.6524 52.1852L27.6992 49.1943C25.9156 48.0964 23.9159 52.1506 25.3019 52.7643L30.4308 54.473L31.4566 57.1499C31.6324 57.608 31.9551 57.9941 32.3729 58.2448L33.3382 58.8269C33.6148 58.994 33.949 59.0487 34.2631 58.9767L35.5655 58.6799C35.9459 58.5935 36.1505 58.1786 35.9891 57.8213L35.0555 55.7898L34.995 55.0551L35.3898 55.3836C35.7874 55.6688 36.5942 55.4181 36.3089 54.9341Z" fill="url(#paint41_linear_1_993)"/>
<path d="M35.7668 58.5967C35.7092 58.6371 35.6429 58.6659 35.5708 58.6803L35.1847 58.7696C35.0724 58.6861 34.9802 58.5795 34.9052 58.4498L33.8218 56.5106C33.7728 56.4213 33.8016 56.3089 33.8939 56.2599C33.9832 56.2109 34.0898 56.2397 34.1445 56.3291L35.228 58.274C35.3403 58.4728 35.5507 58.591 35.7668 58.5967Z" fill="#EE8078"/>
<path d="M34.7552 58.8647L34.2711 58.9713C34.2423 58.9771 34.2135 58.98 34.1818 58.9857C34.0982 58.9108 34.0262 58.8244 33.9657 58.7206L32.9917 56.9716C32.9428 56.8823 32.9716 56.7699 33.0609 56.7209C33.1531 56.672 33.2626 56.7008 33.3116 56.7901L34.2913 58.5449C34.3864 58.7235 34.565 58.8359 34.7552 58.8647Z" fill="#EE8078"/>
<path d="M33.8272 58.9969C33.6544 58.9709 33.493 58.9133 33.3432 58.824L32.9916 58.6079L32.1877 57.4265C32.1301 57.3371 32.1474 57.2248 32.2367 57.1671C32.3203 57.1124 32.4326 57.1326 32.4903 57.2161L33.5333 58.7606C33.6054 58.8701 33.7091 58.9536 33.8272 58.9969Z" fill="#EE8078"/>
<path d="M133.433 35.9198C140.844 35.9198 146.852 29.2786 146.852 21.0862C146.852 12.8939 140.844 6.25262 133.433 6.25262C126.022 6.25262 120.014 12.8939 120.014 21.0862C120.014 29.2786 126.022 35.9198 133.433 35.9198Z" fill="#D3673D"/>
<path d="M123.482 0H120.015C120.015 0 110.063 7.77698 110.063 14.8336C110.063 23.0255 116.07 29.6672 123.482 29.6672C130.893 29.6672 136.9 23.0255 136.9 14.8336C136.9 6.64169 130.893 0 123.482 0Z" fill="url(#paint42_linear_1_993)"/>
<path d="M120.013 29.6672C127.424 29.6672 133.432 23.026 133.432 14.8336C133.432 6.64123 127.424 0 120.013 0C112.602 0 106.594 6.64123 106.594 14.8336C106.594 23.026 112.602 29.6672 120.013 29.6672Z" fill="url(#paint43_linear_1_993)"/>
<path opacity="0.4" d="M120.012 27.8316C126.506 27.8316 131.771 22.0122 131.771 14.8335C131.771 7.65482 126.506 1.83536 120.012 1.83536C113.518 1.83536 108.253 7.65482 108.253 14.8335C108.253 22.0122 113.518 27.8316 120.012 27.8316Z" fill="url(#paint44_linear_1_993)"/>
<path opacity="0.7" d="M119.809 9.86893L134.637 22.5616L123.48 22.8123L119.809 9.86893Z" fill="#D3673D"/>
<path d="M111.025 6.25262H106.591C106.591 6.25262 97.6033 14.2947 97.6033 21.0862C97.6033 29.2781 103.611 35.9198 111.022 35.9198C118.433 35.9198 124.441 29.2781 124.441 21.0862C124.441 12.8943 118.436 6.25262 111.025 6.25262Z" fill="url(#paint45_linear_1_993)"/>
<path d="M106.593 35.9198C114.004 35.9198 120.012 29.2786 120.012 21.0862C120.012 12.8939 114.004 6.25262 106.593 6.25262C99.1822 6.25262 93.1743 12.8939 93.1743 21.0862C93.1743 29.2786 99.1822 35.9198 106.593 35.9198Z" fill="url(#paint46_linear_1_993)"/>
<path opacity="0.4" d="M106.596 34.0847C113.09 34.0847 118.355 28.2652 118.355 21.0866C118.355 13.9079 113.09 8.08844 106.596 8.08844C100.101 8.08844 94.8365 13.9079 94.8365 21.0866C94.8365 28.2652 100.101 34.0847 106.596 34.0847Z" fill="url(#paint47_linear_1_993)"/>
<path d="M100.515 52.8311H147.067C150.683 52.8311 153.614 49.9007 153.614 46.2845V28.6271C153.614 25.0109 150.683 22.0805 147.067 22.0805H100.515C96.8985 22.0805 93.968 25.0109 93.968 28.6271V46.2845C93.9709 49.8978 96.9013 52.8311 100.515 52.8311Z" fill="url(#paint48_linear_1_993)"/>
<path d="M88.7173 52.8311H138.883C142.499 52.8311 145.43 49.9007 145.43 46.2845V28.6271C145.43 25.0109 142.499 22.0805 138.883 22.0805H88.7173C85.1011 22.0805 82.1707 25.0109 82.1707 28.6271V46.2845C82.1707 49.8978 85.1011 52.8311 88.7173 52.8311Z" fill="url(#paint49_linear_1_993)"/>
<path d="M89.3532 31.2608H103.25C103.873 31.2608 104.374 30.7565 104.374 30.137V28.8317C104.374 28.2094 103.87 27.708 103.25 27.708H89.3532C88.7308 27.708 88.2295 28.2122 88.2295 28.8317V30.137C88.2295 30.7565 88.7308 31.2608 89.3532 31.2608Z" fill="#FFD19F"/>
<path d="M154.67 3.15201H150.944V3.56693C142.983 5.35918 137.013 12.776 137.013 21.6537C137.013 30.5342 142.983 37.9482 150.944 39.7404V40.1553H154.67C164.424 40.1553 172.33 31.8712 172.33 21.6508C172.33 11.4361 164.424 3.15201 154.67 3.15201Z" fill="url(#paint50_linear_1_993)"/>
<path d="M150.943 40.1611C160.694 40.1611 168.6 31.8763 168.6 21.6565C168.6 11.4368 160.694 3.15201 150.943 3.15201C141.191 3.15201 133.285 11.4368 133.285 21.6565C133.285 31.8763 141.191 40.1611 150.943 40.1611Z" fill="url(#paint51_linear_1_993)"/>
<path d="M149.034 30.2577L140.675 21.5414L143.692 18.3949L149.034 23.9676L159.053 13.5224L162.07 16.666L149.034 30.2577Z" fill="white"/>
<path d="M72.4652 20.3973L70.3272 21.1724L69.8633 21.135L70.8113 20.5126C70.9899 20.3944 71.0505 20.1582 70.9438 19.968C70.8516 19.8037 70.6615 19.7231 70.4799 19.7692L69.0075 20.1553C68.7309 20.2273 68.4745 20.3627 68.2584 20.55L66.3681 22.1867L68.486 24.3391L70.7133 24.2901C71.0677 24.2584 71.4078 24.123 71.6873 23.9011L73.128 22.7572C73.4766 22.4806 73.6063 22.008 73.4478 21.5931L73.1078 20.697C73.0127 20.4348 72.7246 20.3051 72.4652 20.3973Z" fill="url(#paint52_linear_1_993)"/>
<path d="M73.2012 20.9392C73.1033 20.8499 72.9563 20.8211 72.8295 20.8758L70.8615 21.7172C70.8471 21.7259 70.8327 21.7259 70.8125 21.7259C70.7693 21.7259 70.7203 21.6999 70.7002 21.6509C70.6742 21.5933 70.7059 21.5184 70.7636 21.4954L72.7316 20.6482C72.8382 20.605 72.9563 20.5906 73.0658 20.6079C73.086 20.6338 73.1004 20.6626 73.109 20.6914L73.2012 20.9392Z" fill="#EE8078"/>
<path d="M73.436 21.5474C73.3956 21.507 73.3524 21.4724 73.2977 21.4551C73.2083 21.4206 73.1104 21.4263 73.0268 21.4638L71.0617 22.3714C71.0473 22.3772 71.0329 22.3801 71.0127 22.3801C70.9695 22.3801 70.9234 22.357 70.9003 22.3052C70.8773 22.2475 70.9003 22.1726 70.9579 22.1438L72.9231 21.2419C73.047 21.1843 73.1766 21.1728 73.3005 21.2016L73.436 21.5474Z" fill="#EE8078"/>
<path d="M73.5132 22.046C73.5045 22.1439 73.4844 22.2361 73.444 22.3255C73.4095 22.2678 73.3547 22.2275 73.2971 22.1987C73.2049 22.1583 73.1011 22.1583 73.0118 22.2045L71.2974 22.9738C71.283 22.9796 71.2628 22.9824 71.2484 22.9824C71.1994 22.9824 71.1562 22.9565 71.136 22.9075C71.1072 22.8499 71.136 22.775 71.1994 22.7462L72.9081 21.9768C73.0608 21.9077 73.2366 21.9077 73.3922 21.9711C73.4412 21.9941 73.4786 22.0172 73.5132 22.046Z" fill="#EE8078"/>
</g>
<defs>
<linearGradient id="paint0_linear_1_993" x1="17.3974" y1="73.0748" x2="192.701" y2="73.0748" gradientUnits="userSpaceOnUse">
<stop offset="0.0132" stop-color="#4E8BE0"/>
<stop offset="1" stop-color="#9DBEE0"/>
</linearGradient>
<linearGradient id="paint1_linear_1_993" x1="173.061" y1="93.064" x2="173.061" y2="4.83963" gradientUnits="userSpaceOnUse">
<stop offset="0.00386599" stop-color="#5176E6"/>
<stop offset="0.9629" stop-color="#6B9CFF"/>
</linearGradient>
<linearGradient id="paint2_linear_1_993" x1="172.484" y1="121.242" x2="172.484" y2="23.7196" gradientUnits="userSpaceOnUse">
<stop stop-color="#283E59"/>
<stop offset="0.5307" stop-color="#365377"/>
<stop offset="1" stop-color="#40628E"/>
</linearGradient>
<linearGradient id="paint3_linear_1_993" x1="17.5825" y1="113.362" x2="17.5825" y2="60.6093" gradientUnits="userSpaceOnUse">
<stop offset="0.00386599" stop-color="#5176E6"/>
<stop offset="0.9629" stop-color="#6B9CFF"/>
</linearGradient>
<linearGradient id="paint4_linear_1_993" x1="17.4199" y1="121.342" x2="17.4199" y2="74.7385" gradientUnits="userSpaceOnUse">
<stop stop-color="#283E59"/>
<stop offset="0.5307" stop-color="#365377"/>
<stop offset="1" stop-color="#40628E"/>
</linearGradient>
<linearGradient id="paint5_linear_1_993" x1="1.89009" y1="134.118" x2="214.878" y2="134.118" gradientUnits="userSpaceOnUse">
<stop offset="0.0132" stop-color="#4E8BE0"/>
<stop offset="1" stop-color="#9DBEE0"/>
</linearGradient>
<linearGradient id="paint6_linear_1_993" x1="6.31277" y1="128.219" x2="210.459" y2="128.219" gradientUnits="userSpaceOnUse">
<stop offset="0.00603946" stop-color="#5B7AA6"/>
<stop offset="0.9912" stop-color="#84A3CC"/>
</linearGradient>
<linearGradient id="paint7_linear_1_993" x1="6.31205" y1="128.219" x2="205.271" y2="128.219" gradientUnits="userSpaceOnUse">
<stop stop-color="#1B283D" stop-opacity="0"/>
<stop offset="1" stop-color="#344C73"/>
</linearGradient>
<linearGradient id="paint8_linear_1_993" x1="65.2454" y1="110.121" x2="89.7225" y2="110.121" gradientUnits="userSpaceOnUse">
<stop offset="0.0221" stop-color="#2E3C51"/>
<stop offset="0.9901" stop-color="#3A4C66"/>
</linearGradient>
<linearGradient id="paint9_linear_1_993" x1="82.3524" y1="102.6" x2="72.3471" y2="118.045" gradientUnits="userSpaceOnUse">
<stop offset="0.0167" stop-color="#5E7799"/>
<stop offset="0.9878" stop-color="#6583A5"/>
</linearGradient>
<linearGradient id="paint10_linear_1_993" x1="70.2135" y1="110.121" x2="84.7413" y2="110.121" gradientUnits="userSpaceOnUse">
<stop offset="0.0221" stop-color="#95B2CE"/>
<stop offset="0.9901" stop-color="#B8CFE6"/>
</linearGradient>
<linearGradient id="paint11_linear_1_993" x1="75.6525" y1="110.121" x2="79.3024" y2="110.121" gradientUnits="userSpaceOnUse">
<stop offset="0.0167" stop-color="#5E7799"/>
<stop offset="0.9878" stop-color="#6583A5"/>
</linearGradient>
<linearGradient id="paint12_linear_1_993" x1="178.106" y1="110.121" x2="202.583" y2="110.121" gradientUnits="userSpaceOnUse">
<stop offset="0.0221" stop-color="#2E3C51"/>
<stop offset="0.9901" stop-color="#3A4C66"/>
</linearGradient>
<linearGradient id="paint13_linear_1_993" x1="195.215" y1="102.6" x2="185.21" y2="118.046" gradientUnits="userSpaceOnUse">
<stop offset="0.0167" stop-color="#5E7799"/>
<stop offset="0.9878" stop-color="#6583A5"/>
</linearGradient>
<linearGradient id="paint14_linear_1_993" x1="183.081" y1="110.121" x2="197.609" y2="110.121" gradientUnits="userSpaceOnUse">
<stop offset="0.0221" stop-color="#95B2CE"/>
<stop offset="0.9901" stop-color="#B8CFE6"/>
</linearGradient>
<linearGradient id="paint15_linear_1_993" x1="188.52" y1="110.121" x2="192.17" y2="110.121" gradientUnits="userSpaceOnUse">
<stop offset="0.0167" stop-color="#5E7799"/>
<stop offset="0.9878" stop-color="#6583A5"/>
</linearGradient>
<linearGradient id="paint16_linear_1_993" x1="57.9752" y1="131.099" x2="211.89" y2="66.7313" gradientUnits="userSpaceOnUse">
<stop offset="0.0163" stop-color="#F27649"/>
<stop offset="0.4314" stop-color="#F99A59"/>
<stop offset="0.7719" stop-color="#FDB062"/>
<stop offset="0.9898" stop-color="#FFB866"/>
</linearGradient>
<linearGradient id="paint17_linear_1_993" x1="88.6138" y1="103.749" x2="180.093" y2="103.749" gradientUnits="userSpaceOnUse">
<stop offset="0.0188" stop-color="#ED744A"/>
<stop offset="0.9823" stop-color="#F28749"/>
</linearGradient>
<linearGradient id="paint18_linear_1_993" x1="180.511" y1="118.366" x2="199.855" y2="97.1045" gradientUnits="userSpaceOnUse">
<stop offset="0.1433" stop-color="#F28749"/>
<stop offset="0.5001" stop-color="#F9AA66"/>
<stop offset="0.8002" stop-color="#FDC079"/>
<stop offset="0.9924" stop-color="#FFC880"/>
</linearGradient>
<linearGradient id="paint19_linear_1_993" x1="67.0002" y1="118.918" x2="90.0749" y2="96.9063" gradientUnits="userSpaceOnUse">
<stop offset="0.4007" stop-color="#F27C55"/>
<stop offset="0.6142" stop-color="#F29660"/>
<stop offset="0.8492" stop-color="#F2AC6A"/>
<stop offset="1" stop-color="#F2B46D"/>
</linearGradient>
<linearGradient id="paint20_linear_1_993" x1="91.6536" y1="72.3554" x2="203.574" y2="72.3554" gradientUnits="userSpaceOnUse">
<stop offset="0.00148994" stop-color="#344C73"/>
<stop offset="1" stop-color="#556780"/>
</linearGradient>
<linearGradient id="paint21_linear_1_993" x1="87.8845" y1="72.4679" x2="204.115" y2="72.4679" gradientUnits="userSpaceOnUse">
<stop offset="0.00148994" stop-color="#344C73"/>
<stop offset="1" stop-color="#556780"/>
</linearGradient>
<linearGradient id="paint22_linear_1_993" x1="48.3783" y1="95.253" x2="63.8571" y2="95.253" gradientUnits="userSpaceOnUse">
<stop stop-color="#546173"/>
<stop offset="0.9982" stop-color="#313D4D"/>
</linearGradient>
<linearGradient id="paint23_linear_1_993" x1="48.3783" y1="95.3797" x2="60.0909" y2="95.3797" gradientUnits="userSpaceOnUse">
<stop stop-color="#E6F4FF"/>
<stop offset="0.9779" stop-color="#BED8ED"/>
</linearGradient>
<linearGradient id="paint24_linear_1_993" x1="50.4274" y1="94.6147" x2="60.0896" y2="94.6147" gradientUnits="userSpaceOnUse">
<stop offset="0.0111" stop-color="#708CB3"/>
<stop offset="0.9969" stop-color="#85A5CC"/>
</linearGradient>
<linearGradient id="paint25_linear_1_993" x1="46.8341" y1="111.16" x2="58.9627" y2="111.16" gradientUnits="userSpaceOnUse">
<stop stop-color="#546173"/>
<stop offset="0.9982" stop-color="#313D4D"/>
</linearGradient>
<linearGradient id="paint26_linear_1_993" x1="199.965" y1="86.4732" x2="212.179" y2="86.4732" gradientUnits="userSpaceOnUse">
<stop offset="0.0287" stop-color="#CC3158"/>
<stop offset="0.9779" stop-color="#F2536E"/>
</linearGradient>
<linearGradient id="paint27_linear_1_993" x1="95.6396" y1="78.1765" x2="107.167" y2="78.1765" gradientUnits="userSpaceOnUse">
<stop offset="0.0163" stop-color="#E66745"/>
<stop offset="0.1457" stop-color="#EB764B"/>
<stop offset="0.5072" stop-color="#F69A5A"/>
<stop offset="0.8014" stop-color="#FCB063"/>
<stop offset="0.9898" stop-color="#FFB866"/>
</linearGradient>
<linearGradient id="paint28_linear_1_993" x1="58.791" y1="13.7026" x2="32.2769" y2="90.7434" gradientUnits="userSpaceOnUse">
<stop offset="0.0167" stop-color="#528CFF"/>
<stop offset="0.9878" stop-color="#3A5BBF"/>
</linearGradient>
<linearGradient id="paint29_linear_1_993" x1="71.2995" y1="16.9795" x2="63.0868" y2="29.0692" gradientUnits="userSpaceOnUse">
<stop offset="0.0213" stop-color="#FFBDA3"/>
<stop offset="0.3281" stop-color="#FEB9A0"/>
<stop offset="0.6234" stop-color="#F9AE98"/>
<stop offset="0.9132" stop-color="#F39A89"/>
<stop offset="0.9993" stop-color="#F09384"/>
</linearGradient>
<linearGradient id="paint30_linear_1_993" x1="39.6149" y1="124.607" x2="53.87" y2="124.607" gradientUnits="userSpaceOnUse">
<stop stop-color="#5C88CC"/>
<stop offset="1" stop-color="#9BC1F0"/>
</linearGradient>
<linearGradient id="paint31_linear_1_993" x1="33.7797" y1="129.695" x2="40.878" y2="129.695" gradientUnits="userSpaceOnUse">
<stop stop-color="#5C88CC"/>
<stop offset="1" stop-color="#9BC1F0"/>
</linearGradient>
<linearGradient id="paint32_linear_1_993" x1="39.4847" y1="93.3123" x2="56.4689" y2="93.3123" gradientUnits="userSpaceOnUse">
<stop offset="0.0269" stop-color="#27354D"/>
<stop offset="0.9936" stop-color="#242E40"/>
</linearGradient>
<linearGradient id="paint33_linear_1_993" x1="44.8357" y1="58.0722" x2="37.6652" y2="125.608" gradientUnits="userSpaceOnUse">
<stop offset="0.0101" stop-color="#334766"/>
<stop offset="0.9779" stop-color="#242E40"/>
</linearGradient>
<linearGradient id="paint34_linear_1_993" x1="52.4746" y1="11.5288" x2="25.9605" y2="88.5697" gradientUnits="userSpaceOnUse">
<stop offset="0.0167" stop-color="#528CFF"/>
<stop offset="0.9878" stop-color="#3A5BBF"/>
</linearGradient>
<linearGradient id="paint35_linear_1_993" x1="38.7495" y1="16.8629" x2="37.5458" y2="20.4898" gradientUnits="userSpaceOnUse">
<stop offset="0.3106" stop-color="#E58070"/>
<stop offset="0.8966" stop-color="#FCB59C"/>
<stop offset="0.9787" stop-color="#FFBDA3"/>
</linearGradient>
<linearGradient id="paint36_linear_1_993" x1="44.8724" y1="3.80849" x2="36.8056" y2="18.5663" gradientUnits="userSpaceOnUse">
<stop stop-color="#6E4444"/>
<stop offset="1" stop-color="#472C2C"/>
</linearGradient>
<linearGradient id="paint37_linear_1_993" x1="41.4152" y1="6.30162" x2="34.5366" y2="19.1835" gradientUnits="userSpaceOnUse">
<stop offset="0.0006898" stop-color="#F09384"/>
<stop offset="0.0868" stop-color="#F39A89"/>
<stop offset="0.3766" stop-color="#F9AE98"/>
<stop offset="0.6719" stop-color="#FEB9A0"/>
<stop offset="0.9787" stop-color="#FFBDA3"/>
</linearGradient>
<linearGradient id="paint38_linear_1_993" x1="41.1375" y1="1.76642" x2="33.0707" y2="16.5242" gradientUnits="userSpaceOnUse">
<stop stop-color="#6E4444"/>
<stop offset="1" stop-color="#472C2C"/>
</linearGradient>
<linearGradient id="paint39_linear_1_993" x1="39.7361" y1="5.40675" x2="32.8575" y2="18.2886" gradientUnits="userSpaceOnUse">
<stop offset="0.0006898" stop-color="#F09384"/>
<stop offset="0.0868" stop-color="#F39A89"/>
<stop offset="0.3766" stop-color="#F9AE98"/>
<stop offset="0.6719" stop-color="#FEB9A0"/>
<stop offset="0.9787" stop-color="#FFBDA3"/>
</linearGradient>
<linearGradient id="paint40_linear_1_993" x1="35.3743" y1="5.64398" x2="8.86022" y2="82.6848" gradientUnits="userSpaceOnUse">
<stop offset="0.0167" stop-color="#528CFF"/>
<stop offset="0.9878" stop-color="#3A5BBF"/>
</linearGradient>
<linearGradient id="paint41_linear_1_993" x1="24.8412" y1="54.0044" x2="36.3692" y2="54.0044" gradientUnits="userSpaceOnUse">
<stop offset="0.0006898" stop-color="#F09384"/>
<stop offset="0.0868" stop-color="#F39A89"/>
<stop offset="0.3766" stop-color="#F9AE98"/>
<stop offset="0.6719" stop-color="#FEB9A0"/>
<stop offset="0.9787" stop-color="#FFBDA3"/>
</linearGradient>
<linearGradient id="paint42_linear_1_993" x1="123.482" y1="0.904567" x2="123.482" y2="30.0539" gradientUnits="userSpaceOnUse">
<stop offset="0.0114" stop-color="#FFB54D"/>
<stop offset="0.253" stop-color="#FCAD49"/>
<stop offset="0.6293" stop-color="#F2973D"/>
<stop offset="0.9957" stop-color="#E67B2E"/>
</linearGradient>
<linearGradient id="paint43_linear_1_993" x1="115.947" y1="0.478346" x2="123.951" y2="28.7433" gradientUnits="userSpaceOnUse">
<stop offset="0.0102" stop-color="#FFCC66"/>
<stop offset="0.3815" stop-color="#FFC460"/>
<stop offset="0.9602" stop-color="#FFAE4E"/>
<stop offset="1" stop-color="#FFAC4D"/>
</linearGradient>
<linearGradient id="paint44_linear_1_993" x1="115.501" y1="0.289961" x2="124.693" y2="29.9306" gradientUnits="userSpaceOnUse">
<stop offset="0.0235" stop-color="#E69F3A"/>
<stop offset="0.288" stop-color="#E29737"/>
<stop offset="0.6999" stop-color="#D68130"/>
<stop offset="0.9926" stop-color="#CC6D29"/>
</linearGradient>
<linearGradient id="paint45_linear_1_993" x1="111.026" y1="6.15728" x2="111.026" y2="35.387" gradientUnits="userSpaceOnUse">
<stop offset="0.0114" stop-color="#FFB54D"/>
<stop offset="0.253" stop-color="#FCAD49"/>
<stop offset="0.6293" stop-color="#F2973D"/>
<stop offset="0.9957" stop-color="#E67B2E"/>
</linearGradient>
<linearGradient id="paint46_linear_1_993" x1="99.0186" y1="7.23954" x2="113.589" y2="33.8786" gradientUnits="userSpaceOnUse">
<stop offset="0.0102" stop-color="#FFCC66"/>
<stop offset="0.3815" stop-color="#FFC460"/>
<stop offset="0.9602" stop-color="#FFAE4E"/>
<stop offset="1" stop-color="#FFAC4D"/>
</linearGradient>
<linearGradient id="paint47_linear_1_993" x1="101.216" y1="8.01214" x2="112.535" y2="35.5267" gradientUnits="userSpaceOnUse">
<stop offset="0.0235" stop-color="#E69F3A"/>
<stop offset="0.288" stop-color="#E29737"/>
<stop offset="0.6999" stop-color="#D68130"/>
<stop offset="0.9926" stop-color="#CC6D29"/>
</linearGradient>
<linearGradient id="paint48_linear_1_993" x1="125.932" y1="17.8223" x2="122.097" y2="53.0076" gradientUnits="userSpaceOnUse">
<stop offset="0.00873975" stop-color="#FA8950"/>
<stop offset="1" stop-color="#D96940"/>
</linearGradient>
<linearGradient id="paint49_linear_1_993" x1="132.205" y1="13.2991" x2="89.5152" y2="69.3288" gradientUnits="userSpaceOnUse">
<stop stop-color="#FFB259"/>
<stop offset="0.2352" stop-color="#FFAA55"/>
<stop offset="0.6015" stop-color="#FF944A"/>
<stop offset="0.874" stop-color="#FF7F40"/>
</linearGradient>
<linearGradient id="paint50_linear_1_993" x1="160.725" y1="0.703312" x2="149.594" y2="39.2237" gradientUnits="userSpaceOnUse">
<stop offset="0.0345" stop-color="#50B360"/>
<stop offset="1" stop-color="#2C805C"/>
</linearGradient>
<linearGradient id="paint51_linear_1_993" x1="159.005" y1="2.93213" x2="143.496" y2="38.9512" gradientUnits="userSpaceOnUse">
<stop offset="0.0102" stop-color="#6FC75D"/>
<stop offset="1" stop-color="#47B374"/>
</linearGradient>
<linearGradient id="paint52_linear_1_993" x1="72.8103" y1="18.0069" x2="64.5976" y2="30.0966" gradientUnits="userSpaceOnUse">
<stop offset="0.0213" stop-color="#FFBDA3"/>
<stop offset="0.3281" stop-color="#FEB9A0"/>
<stop offset="0.6234" stop-color="#F9AE98"/>
<stop offset="0.9132" stop-color="#F39A89"/>
<stop offset="0.9993" stop-color="#F09384"/>
</linearGradient>
<clipPath id="clip0_1_993">
<rect width="214.903" height="140" fill="white"/>
</clipPath>
</defs>
</svg>
