<svg width="152" height="58" viewBox="0 0 152 58" fill="none" xmlns="http://www.w3.org/2000/svg">
<g opacity="0.8" filter="url(#filter0_d_1_304)">
<rect x="4" width="144" height="50" rx="25" fill="url(#paint0_radial_1_304)" fill-opacity="0.8" shape-rendering="crispEdges"/>
</g>
<path opacity="0.95" d="M49.1316 24.5H50.0916C50.6382 24.5 51.0782 24.3667 51.4116 24.1C51.7582 23.82 51.9316 23.4267 51.9316 22.92C51.9316 22.4133 51.7716 22.0267 51.4516 21.76C51.1449 21.48 50.6916 21.34 50.0916 21.34C49.8782 21.34 49.6982 21.3467 49.5516 21.36C49.4182 21.36 49.2782 21.3733 49.1316 21.4V24.5ZM50.3116 27.24H45.6516V20.02C45.6516 19.74 45.7316 19.5267 45.8916 19.38C46.0516 19.22 46.2582 19.0933 46.5116 19C46.9649 18.84 47.5049 18.7267 48.1316 18.66C48.7582 18.58 49.3182 18.54 49.8116 18.54C51.6382 18.54 53.0382 18.9333 54.0116 19.72C54.9982 20.5067 55.4916 21.5733 55.4916 22.92C55.4916 23.7867 55.2782 24.5467 54.8516 25.2C54.4249 25.84 53.8249 26.34 53.0516 26.7C52.2782 27.06 51.3649 27.24 50.3116 27.24ZM45.6516 25.72H49.1516V30.98C49.0049 31.02 48.7782 31.06 48.4716 31.1C48.1649 31.14 47.8516 31.16 47.5316 31.16C46.8382 31.16 46.3516 31.04 46.0716 30.8C45.7916 30.5467 45.6516 30.1133 45.6516 29.5V25.72ZM60.9773 28.84C61.204 28.84 61.4507 28.82 61.7173 28.78C61.9973 28.7267 62.204 28.66 62.3373 28.58V26.98L60.8973 27.1C60.524 27.1267 60.2173 27.2067 59.9773 27.34C59.7373 27.4733 59.6173 27.6733 59.6173 27.94C59.6173 28.2067 59.7173 28.4267 59.9173 28.6C60.1307 28.76 60.484 28.84 60.9773 28.84ZM60.8173 20.98C62.2707 20.98 63.4307 21.28 64.2973 21.88C65.1773 22.4667 65.6173 23.3867 65.6173 24.64V29.12C65.6173 29.4667 65.5173 29.7533 65.3173 29.98C65.1307 30.1933 64.904 30.38 64.6373 30.54C64.2107 30.7933 63.6907 30.9867 63.0773 31.12C62.464 31.2533 61.764 31.32 60.9773 31.32C59.5773 31.32 58.4507 31.0533 57.5973 30.52C56.7573 29.9733 56.3373 29.1533 56.3373 28.06C56.3373 27.14 56.6107 26.4333 57.1573 25.94C57.7173 25.4467 58.564 25.14 59.6973 25.02L62.3173 24.74V24.6C62.3173 24.2133 62.144 23.94 61.7973 23.78C61.464 23.6067 60.9773 23.52 60.3373 23.52C59.844 23.52 59.3507 23.5733 58.8573 23.68C58.3773 23.7867 57.944 23.92 57.5573 24.08C57.384 23.96 57.2373 23.78 57.1173 23.54C56.9973 23.2867 56.9373 23.0267 56.9373 22.76C56.9373 22.12 57.2773 21.6667 57.9573 21.4C58.344 21.2533 58.7973 21.1467 59.3173 21.08C59.8507 21.0133 60.3507 20.98 60.8173 20.98ZM68.9819 28.52C68.7819 28.0667 68.5685 27.5467 68.3419 26.96C68.1152 26.36 67.8752 25.6467 67.6219 24.82C67.3819 23.98 67.1152 22.9667 66.8219 21.78C67.0085 21.5933 67.2552 21.4333 67.5619 21.3C67.8819 21.1533 68.2285 21.08 68.6019 21.08C69.0685 21.08 69.4552 21.18 69.7619 21.38C70.0685 21.5667 70.2952 21.9267 70.4419 22.46C70.7085 23.3933 70.9752 24.32 71.2419 25.24C71.5085 26.1467 71.7685 27.0533 72.0219 27.96H72.1019C72.3152 27.3467 72.5219 26.6733 72.7219 25.94C72.9352 25.2067 73.1285 24.46 73.3019 23.7C73.4885 22.9267 73.6419 22.18 73.7619 21.46C73.9885 21.34 74.2219 21.2467 74.4619 21.18C74.7019 21.1133 74.9552 21.08 75.2219 21.08C75.6885 21.08 76.0952 21.18 76.4419 21.38C76.7885 21.58 76.9619 21.9267 76.9619 22.42C76.9619 22.8467 76.9085 23.34 76.8019 23.9C76.6952 24.46 76.5485 25.0533 76.3619 25.68C76.1752 26.3067 75.9619 26.94 75.7219 27.58C75.4819 28.2067 75.2285 28.8133 74.9619 29.4C74.6952 29.9733 74.4285 30.4933 74.1619 30.96C73.4152 32.2533 72.7219 33.2133 72.0819 33.84C71.4419 34.4667 70.7952 34.78 70.1419 34.78C69.6085 34.78 69.1619 34.6133 68.8019 34.28C68.4419 33.9467 68.2285 33.5133 68.1619 32.98C68.4419 32.74 68.7219 32.48 69.0019 32.2C69.2952 31.92 69.5752 31.62 69.8419 31.3C70.1085 30.9933 70.3485 30.6867 70.5619 30.38C70.3352 30.3133 70.0885 30.16 69.8219 29.92C69.5685 29.6667 69.2885 29.2 68.9819 28.52ZM88.4398 26.14C88.4398 27.2067 88.2198 28.1267 87.7798 28.9C87.3532 29.6733 86.7465 30.2733 85.9598 30.7C85.1865 31.1133 84.2665 31.32 83.1998 31.32C82.1465 31.32 81.2265 31.1133 80.4398 30.7C79.6532 30.2867 79.0398 29.6933 78.5998 28.92C78.1732 28.1467 77.9598 27.22 77.9598 26.14C77.9598 25.0867 78.1798 24.1733 78.6198 23.4C79.0598 22.6267 79.6732 22.0333 80.4598 21.62C81.2465 21.1933 82.1598 20.98 83.1998 20.98C84.2532 20.98 85.1665 21.1933 85.9398 21.62C86.7265 22.0467 87.3398 22.6467 87.7798 23.42C88.2198 24.1933 88.4398 25.1 88.4398 26.14ZM83.1998 23.64C82.6532 23.64 82.2198 23.86 81.8998 24.3C81.5932 24.7267 81.4398 25.34 81.4398 26.14C81.4398 26.9667 81.5932 27.5933 81.8998 28.02C82.2065 28.4467 82.6398 28.66 83.1998 28.66C83.7598 28.66 84.1932 28.4467 84.4998 28.02C84.8065 27.58 84.9598 26.9533 84.9598 26.14C84.9598 25.3533 84.7998 24.74 84.4798 24.3C84.1732 23.86 83.7465 23.64 83.1998 23.64ZM90.0986 27.14V25.82H93.4986V27.14C93.4986 27.6733 93.6319 28.06 93.8986 28.3C94.1786 28.54 94.5653 28.66 95.0586 28.66C95.3653 28.66 95.6186 28.6333 95.8186 28.58C96.0186 28.5267 96.1653 28.4733 96.2586 28.42V25.82H99.6586V28.92C99.6586 29.2533 99.5853 29.5467 99.4386 29.8C99.3053 30.04 99.0986 30.2467 98.8186 30.42C98.3519 30.7133 97.7919 30.9333 97.1386 31.08C96.4986 31.24 95.7986 31.32 95.0386 31.32C94.0786 31.32 93.2253 31.18 92.4786 30.9C91.7319 30.6067 91.1453 30.1533 90.7186 29.54C90.3053 28.9267 90.0986 28.1267 90.0986 27.14ZM99.6586 26.68H96.2586V21.32C96.4053 21.28 96.6119 21.24 96.8786 21.2C97.1586 21.16 97.4586 21.14 97.7786 21.14C98.4453 21.14 98.9253 21.2533 99.2186 21.48C99.5119 21.6933 99.6586 22.1133 99.6586 22.74V26.68ZM93.4986 26.68H90.0986V21.32C90.2453 21.28 90.4519 21.24 90.7186 21.2C90.9986 21.16 91.2986 21.14 91.6186 21.14C92.2853 21.14 92.7653 21.2533 93.0586 21.48C93.3519 21.6933 93.4986 22.1133 93.4986 22.74V26.68ZM101.779 25.72H105.139V27.66C105.139 27.9933 105.246 28.24 105.459 28.4C105.686 28.5467 105.999 28.62 106.399 28.62C106.599 28.62 106.806 28.6067 107.019 28.58C107.233 28.54 107.419 28.4933 107.579 28.44C107.699 28.5733 107.799 28.7333 107.879 28.92C107.973 29.1067 108.019 29.3267 108.019 29.58C108.019 30.0733 107.826 30.4867 107.439 30.82C107.066 31.14 106.399 31.3 105.439 31.3C104.266 31.3 103.359 31.0333 102.719 30.5C102.093 29.9667 101.779 29.1 101.779 27.9V25.72ZM103.979 24.1V21.5H107.759C107.839 21.6333 107.913 21.8133 107.979 22.04C108.059 22.2667 108.099 22.5133 108.099 22.78C108.099 23.2467 107.993 23.5867 107.779 23.8C107.579 24 107.306 24.1 106.959 24.1H103.979ZM105.139 26.2H101.779V19.02C101.926 18.98 102.133 18.94 102.399 18.9C102.679 18.8467 102.973 18.82 103.279 18.82C103.933 18.82 104.406 18.9333 104.699 19.16C104.993 19.3867 105.139 19.8067 105.139 20.42V26.2Z" fill="white"/>
<defs>
<filter id="filter0_d_1_304" x="0" y="0" width="152" height="58" filterUnits="userSpaceOnUse" color-interpolation-filters="sRGB">
<feFlood flood-opacity="0" result="BackgroundImageFix"/>
<feColorMatrix in="SourceAlpha" type="matrix" values="0 0 0 0 0 0 0 0 0 0 0 0 0 0 0 0 0 0 127 0" result="hardAlpha"/>
<feOffset dy="4"/>
<feGaussianBlur stdDeviation="2"/>
<feComposite in2="hardAlpha" operator="out"/>
<feColorMatrix type="matrix" values="0 0 0 0 0 0 0 0 0 0 0 0 0 0 0 0 0 0 0.25 0"/>
<feBlend mode="normal" in2="BackgroundImageFix" result="effect1_dropShadow_1_304"/>
<feBlend mode="normal" in="SourceGraphic" in2="effect1_dropShadow_1_304" result="shape"/>
</filter>
<radialGradient id="paint0_radial_1_304" cx="0" cy="0" r="1" gradientUnits="userSpaceOnUse" gradientTransform="translate(76 18.0328) rotate(90) scale(31.9672 130.309)">
<stop stop-color="#FFD4AE"/>
<stop offset="1" stop-color="#FF9433"/>
</radialGradient>
</defs>
</svg>
