<svg width="26" height="22" viewBox="0 0 26 22" fill="none" xmlns="http://www.w3.org/2000/svg">
<g opacity="0.5">
<path opacity="0.8" d="M20.6575 11.8206L21.9529 14.2277C22.1736 14.6377 21.9851 15.1495 21.5495 15.3234C19.5543 16.1197 17.2781 15.475 16.0155 13.7558L15.0428 12.4316C13.9397 10.9296 13.0561 9.27888 12.4183 7.52829L12.0374 6.48277C11.294 4.44223 12.319 2.17398 14.3509 1.36299C14.6691 1.23597 15.0311 1.36622 15.1923 1.66574L16.5109 4.11574C16.7929 4.6398 16.552 5.29404 15.9952 5.51629L15.2426 5.81665C15.064 5.88795 14.9584 6.07299 14.9888 6.26159C15.3098 8.25245 16.2684 10.0834 17.7221 11.4822L17.9258 11.6782C18.0519 11.7994 18.2381 11.8355 18.4016 11.7702L19.4047 11.3698C19.8785 11.1807 20.4175 11.3746 20.6575 11.8206Z" stroke="black"/>
<path opacity="0.8" d="M15.4157 16.5299C15.1412 16.9597 14.7885 17.3288 14.3777 17.6161C13.5487 18.1957 12.4357 18.269 10.4061 18.2782V18.2796L9.36622 20.4559C9.01958 21.1814 8.03024 21.1814 7.6836 20.4559L6.64368 18.2796V18.2782C4.61412 18.269 3.50116 18.1957 2.67215 17.6161C2.26132 17.3288 1.90859 16.9597 1.63409 16.5299C1 15.5368 1 14.1545 1 11.3898C1 8.62509 1 7.24274 1.63409 6.24973C1.90859 5.81985 2.26132 5.45075 2.67215 5.16351C3.62113 4.5 4.94218 4.5 7.5843 4.5H9.46553" stroke="black" stroke-linecap="round" stroke-linejoin="round"/>
<path opacity="0.8" d="M5.55234 9L8.58723 9" stroke="black" stroke-linecap="round" stroke-linejoin="round"/>
<path opacity="0.8" d="M5.55234 13.5H10.8634" stroke="black" stroke-linecap="round" stroke-linejoin="round"/>
</g>
</svg>
